<svg width="1112" height="878" viewBox="0 0 1112 878" fill="none" xmlns="http://www.w3.org/2000/svg">
<path d="M382.851 264.299C593.751 188.442 752.5 -142.665 1001.14 124.049C1249.77 390.762 1043.46 794.986 744.371 842.798C445.28 890.609 98.9318 760.325 36.75 547.658C-69.5089 184.291 241.373 315.185 382.851 264.299Z" fill="#F0F0F0"/>
<path d="M367.807 242.407C578.712 166.555 737.475 -164.557 986.106 102.17C1234.74 368.898 1028.43 773.108 729.341 820.919C430.25 868.731 83.9017 738.446 21.7199 525.78C-84.5481 162.399 226.329 293.293 367.807 242.407Z" fill="#536DFE"/>
<path d="M684.233 125.117L682.098 119L679.963 125.117C678.913 127.832 677.319 130.304 675.279 132.381C673.239 134.458 670.795 136.096 668.099 137.194C670.795 138.292 673.239 139.93 675.279 142.007C677.319 144.084 678.913 146.556 679.963 149.272L682.098 155.389L684.233 149.272C685.283 146.557 686.877 144.084 688.917 142.008C690.957 139.931 693.4 138.293 696.097 137.194V137.194C693.4 136.096 690.957 134.458 688.917 132.381C686.877 130.304 685.283 127.832 684.233 125.117V125.117Z" fill="white"/>
<path d="M445.486 570.893L443.351 564.776L441.216 570.893C440.166 573.608 438.572 576.081 436.532 578.157C434.492 580.234 432.049 581.872 429.352 582.971V582.971C432.049 584.069 434.492 585.707 436.532 587.784C438.572 589.861 440.166 592.333 441.216 595.048L443.351 601.165L445.486 595.048C446.536 592.333 448.13 589.861 450.17 587.784C452.21 585.707 454.654 584.069 457.35 582.971V582.971C454.654 581.873 452.21 580.235 450.17 578.158C448.13 576.081 446.536 573.609 445.486 570.893V570.893Z" fill="white"/>
<path d="M1023.87 286.658L1022.46 282.622L1021.05 286.658C1020.36 288.445 1019.31 290.072 1017.96 291.438C1016.62 292.805 1015.01 293.884 1013.24 294.608C1015.02 295.332 1016.63 296.413 1017.97 297.783C1019.32 299.153 1020.37 300.784 1021.06 302.576L1022.47 306.612L1023.88 302.576C1024.58 300.784 1025.63 299.153 1026.97 297.783C1028.32 296.413 1029.93 295.332 1031.71 294.608C1029.93 293.887 1028.32 292.81 1026.97 291.443C1025.62 290.076 1024.56 288.448 1023.87 286.658V286.658Z" fill="white"/>
<path d="M352.237 331.148L350.83 327.111L349.423 331.148C348.731 332.939 347.679 334.57 346.333 335.941C344.987 337.311 343.375 338.391 341.597 339.116V339.116C343.375 339.84 344.987 340.921 346.333 342.291C347.679 343.661 348.731 345.292 349.423 347.083L350.83 351.12L352.237 347.083C352.929 345.292 353.981 343.661 355.327 342.291C356.673 340.921 358.284 339.84 360.063 339.116V339.116C358.284 338.391 356.673 337.31 355.327 335.94C353.981 334.57 352.929 332.939 352.237 331.148Z" fill="white"/>
<path d="M256.109 876.355H263.977L328.143 563.598H311.889L256.109 876.355Z" fill="#C7C7C7"/>
<path d="M861.555 876.355H853.687L789.521 563.598H805.774L861.555 876.355Z" fill="#C7C7C7"/>
<path d="M245.74 375.335C243.198 378.222 241.446 381.716 240.653 385.479C241.685 382.654 243.51 380.187 245.909 378.373C249.14 376.32 253.433 376.6 256.691 374.588C259.535 372.371 261.626 369.331 262.68 365.883C260.249 368.022 257.419 369.661 254.354 370.707C251.086 371.357 248.086 372.969 245.74 375.335Z" fill="#482C3B"/>
<path d="M285.248 725.566H273.302V841.322H285.248V725.566Z" fill="#A6AEBA"/>
<path d="M288.877 708.71H269.673V725.562H288.877V708.71Z" fill="#D2DCEB"/>
<path d="M286.527 796.773H272.024V832.896H286.527V796.773Z" fill="#D2DCEB"/>
<path d="M288.877 832.892H269.673V849.744H288.877V832.892Z" fill="#D2DCEB"/>
<path d="M302.551 676.807H255.995V708.71H302.551V676.807Z" fill="#A6AEBA"/>
<path d="M344.057 667.268H219.135C217.766 667.268 216.656 668.377 216.656 669.746V688.679C216.656 690.048 217.766 691.157 219.135 691.157H344.057C345.426 691.157 346.536 690.048 346.536 688.679V669.746C346.536 668.377 345.426 667.268 344.057 667.268Z" fill="#A6AEBA"/>
<path d="M233.001 865.844L269.668 847.668V834.995L228.189 862.793L233.001 865.844Z" fill="#A6AEBA"/>
<path d="M228.189 878C232.934 878 236.781 874.153 236.781 869.409C236.781 864.664 232.934 860.818 228.189 860.818C223.444 860.818 219.598 864.664 219.598 869.409C219.598 874.153 223.444 878 228.189 878Z" fill="#A6AEBA"/>
<path d="M279.273 878C284.018 878 287.865 874.153 287.865 869.409C287.865 864.664 284.018 860.818 279.273 860.818C274.528 860.818 270.681 864.664 270.681 869.409C270.681 874.153 274.528 878 279.273 878Z" fill="#A6AEBA"/>
<path d="M325.54 865.844L288.877 847.668V834.995L330.356 862.793L325.54 865.844Z" fill="#A6AEBA"/>
<path d="M330.356 878C335.101 878 338.948 874.153 338.948 869.409C338.948 864.664 335.101 860.818 330.356 860.818C325.611 860.818 321.764 864.664 321.764 869.409C321.764 874.153 325.611 878 330.356 878Z" fill="#A6AEBA"/>
<path d="M281.6 841.318H276.949V869.299H281.6V841.318Z" fill="#A6AEBA"/>
<path d="M195.064 680.353C192.978 680.425 190.932 679.777 189.268 678.518C187.604 677.258 186.424 675.465 185.927 673.439C182.788 660.5 177.087 636.326 176.959 575.992C176.323 529.21 170.027 482.676 158.208 437.405C157.563 434.525 157.856 431.513 159.045 428.81C160.234 426.108 162.256 423.857 164.816 422.386V422.386C167.66 420.75 170.883 419.889 174.164 419.889H289.899C289.899 419.889 337.477 504.988 343.718 534.146C349.959 563.305 358.675 675.235 358.675 675.235L195.064 680.353Z" fill="#D0DFE1"/>
<path d="M198.84 680.578C198.84 680.578 188.03 659.387 187.842 575.997C187.695 507.334 174.049 450.766 170.113 428.92C169.914 427.813 169.96 426.676 170.249 425.589C170.538 424.501 171.062 423.491 171.785 422.629C172.507 421.767 173.411 421.074 174.431 420.6C175.451 420.126 176.563 419.881 177.688 419.885H300.782C300.782 419.885 348.36 504.983 354.601 534.142C360.842 563.301 369.558 675.231 369.558 675.231L198.84 680.578Z" fill="#B0BEBF"/>
<path d="M311.115 680.591H193.946C192.355 680.591 190.829 679.959 189.704 678.835C188.579 677.71 187.948 676.184 187.948 674.594V674.594V655.199H311.115V680.568V680.591Z" fill="#D0DFE1"/>
<path d="M389.807 680.591H216.656V662.722C216.654 661.735 216.847 660.757 217.223 659.844C217.6 658.931 218.153 658.102 218.851 657.403C219.548 656.704 220.377 656.15 221.289 655.772C222.201 655.394 223.179 655.199 224.166 655.199H389.807C391.799 655.199 393.709 655.99 395.118 657.398C396.526 658.807 397.317 660.717 397.317 662.709V673.068C397.319 674.054 397.125 675.031 396.749 675.943C396.373 676.854 395.821 677.683 395.124 678.381C394.428 679.079 393.6 679.633 392.69 680.012C391.779 680.39 390.802 680.586 389.816 680.587V680.587L389.807 680.591Z" fill="#B0BEBF"/>
<path d="M234.082 390.583C234.082 390.583 251.985 384.916 253.786 377.127C255.252 370.799 257.589 351.143 257.589 351.143H288.813C288.195 358.88 288.195 366.654 288.813 374.391C291.782 388.531 309.52 393.177 309.52 393.177L312.05 437.359L266.03 475.939L221.623 431.33L234.082 390.583Z" fill="#FFE0BC"/>
<path d="M305.479 302.993C313.351 313.494 311.748 314.979 310.666 329.444C309.9 339.595 307.81 349.603 304.448 359.212C302.326 364.664 291.223 388.11 271.428 379.551C260.158 374.347 250.747 365.825 244.456 355.125C241.558 346.67 240.131 337.781 240.236 328.843C240.035 319.222 239.989 306.741 240.332 299.566C241.56 274.228 291.077 283.776 305.479 302.993Z" fill="#FFE0BC"/>
<path d="M357.011 600.753C374.058 597.06 383.552 602.54 393.766 614.791C403.98 627.043 399.893 656.656 393.766 681.159C387.639 705.663 364.151 868.923 364.151 868.923H346.793C346.793 868.923 342.334 804.594 339.273 757.626C336.212 710.657 346.697 643.378 346.697 643.378L280.414 600.766C280.414 600.766 341.702 604.07 357.011 600.753Z" fill="#0B5A70"/>
<path d="M356.196 577.097C369.21 589.248 407.518 609.733 399.879 635.062L348.557 656.807C348.557 656.807 296.411 637.907 280.414 600.748L264.422 563.589L298.789 549.917L356.196 577.097Z" fill="#0B5A70"/>
<path d="M318.713 609.751C328.152 616.569 353.662 627.795 348.557 656.812C345.954 671.611 304.228 761.003 281.436 798.569C269.82 817.717 249.13 857.789 249.13 857.789L229.729 862.426C229.729 862.426 244.676 813.785 254.886 768.861C265.095 723.936 294.825 670.319 294.825 670.319C282.605 662.086 269.807 654.745 256.531 648.353C240.19 641.206 231.402 638.273 255.908 614.81C280.414 591.346 300.324 596.473 318.713 609.751Z" fill="#0B5A70"/>
<path d="M356.196 471.517C358.273 481.687 361.661 491.544 366.277 500.841C370.355 507.957 454.527 538.976 454.527 538.976H405.359C405.359 538.976 358.56 532.841 345.207 514.894C335.515 501.118 326.911 486.608 319.473 471.495H356.196V471.517Z" fill="#F7D4B2"/>
<path d="M326.049 399.331C334.755 403.202 342.797 425.195 349.226 443.935C352.632 452.821 354.971 462.08 356.196 471.518C356.196 471.518 333.701 484.379 321.769 481.162C321.769 481.162 310.437 440.457 318.241 419.894L326.049 399.331Z" fill="#0B5A70"/>
<path d="M282.65 578.567C307.174 577.587 331.68 576.991 356.2 577.097C344.286 569.372 333.747 563.988 331.456 561.697C326.351 556.593 328.083 511.113 331.836 496.983C335.589 482.853 335.36 466.486 332.643 459.197C329.925 451.907 326.026 399.33 326.026 399.33L309.488 393.186C309.488 393.186 314.556 431.33 274.47 431.33C234.224 431.33 234.05 390.583 234.05 390.583L208.389 396.265C208.389 396.265 206.497 445.932 207.45 468.47C208.403 491.008 219.112 530.046 222.173 550.485C224.555 566.38 220.143 576.098 217.105 587.804C238.092 580.277 260.4 577.133 282.65 578.567V578.567Z" fill="#0B5A70"/>
<path d="M250.336 854.509C244.837 853.409 242.876 855.608 237.913 858.916C234.779 860.929 231.164 862.07 227.442 862.22V877.097H265.769L250.336 854.509Z" fill="#8B4200"/>
<path d="M367.496 857.258C367.496 857.258 366.937 862.417 358.67 864.745C356.165 865.338 353.545 865.232 351.096 864.438C348.647 863.645 346.463 862.195 344.781 860.245L342.948 877.097L408.278 877.487L367.496 857.258Z" fill="#8B4200"/>
<path d="M368.641 535.109C361.31 534.238 354.262 527.375 325.843 527.036C309.691 524.819 293.675 521.701 277.871 517.698C268.316 515.15 259.189 511.212 250.78 506.01C250.78 506.01 240.365 467.183 236.392 442.556C224.84 441.286 213.32 439.807 201.873 437.868C201.465 468.622 223.254 523.301 230.508 528.754C244.626 539.374 277.806 538.834 285.775 538.99C304.233 539.324 382.883 541.445 382.883 541.445C382.883 541.445 388.927 537.519 368.641 535.109Z" fill="#FFE0BC"/>
<path d="M245.643 481.451C245.643 481.451 235.177 420.004 232.148 413.539C216.468 380.123 194.931 397.928 198.102 423.784C199.449 434.78 200.306 463.243 205.892 490.115C219.638 490.384 233.256 487.416 245.643 481.451V481.451Z" fill="#0B5A70"/>
<path d="M351.893 541.45H382.865L413.837 433.099H390.288L351.893 541.45Z" fill="#A6AEBA"/>
<path d="M360.783 541.45H481.659L512.631 433.099H391.754L360.783 541.45Z" fill="#D2DCEB"/>
<path d="M481.659 538.999H342.999V547.081H481.659V538.999Z" fill="#D2DCEB"/>
<path d="M342.999 538.999H273.669V547.081H342.999V538.999Z" fill="#A6AEBA"/>
<path d="M450.843 502.53C454.341 494.236 451.878 485.279 445.342 482.523C438.806 479.766 430.672 484.255 427.174 492.549C423.676 500.842 426.139 509.8 432.675 512.556C439.211 515.312 447.345 510.824 450.843 502.53Z" fill="#A6AEBA"/>
<path d="M217.141 587.786C212.559 609.779 223.378 657.764 294.825 670.305L335.607 686.8C340.48 680.788 343.995 673.795 345.913 666.299C347.831 658.803 348.106 650.981 346.72 643.368C341.61 618.168 312.998 608.592 294.147 578.123C294.147 578.123 264.531 565.752 245.501 572.368C235.144 575.636 225.515 580.871 217.141 587.786V587.786Z" fill="#0B5A70"/>
<path d="M311.592 317.975C311.592 317.975 302.995 318.31 292.433 302.397C292.433 302.397 293.57 309.604 283.296 319.313C273.022 329.022 263.808 326.392 262.259 331.079C261.318 333.963 260.75 336.954 260.568 339.982C259.844 339.852 259.16 339.555 258.571 339.115C257.982 338.674 257.505 338.102 257.177 337.443C256.4 334.951 255.209 332.607 253.653 330.511C248.961 327.405 240.896 331.57 243.48 340.701C244.987 344.627 247.718 347.962 251.27 350.213C251.151 365.791 257.511 370.593 257.511 370.593C257.511 370.593 246.972 375.381 241.583 373.186C233.881 370.029 231.906 365.168 232.185 356.463C228.3 355.696 224.716 353.833 221.857 351.093C211.093 340.412 223.506 309.989 228.492 306.232C228.492 306.232 216.724 289.568 231.511 278.374C246.514 267.016 252.311 285.375 252.311 285.375C257.291 281.618 277.719 280.335 288.126 284.23C317.416 295.153 311.592 317.975 311.592 317.975Z" fill="#482C3B"/>
<path d="M291.737 302.228C292.653 308.184 291.782 322.007 275.836 332.83" stroke="#482C3B" stroke-width="0.25" stroke-miterlimit="10"/>
<path d="M956.784 725.562H944.838V841.318H956.784V725.562Z" fill="#A6AEBA"/>
<path d="M960.413 708.71H941.208V725.562H960.413V708.71Z" fill="#D2DCEB"/>
<path d="M958.062 796.769H943.559V832.892H958.062V796.769Z" fill="#D2DCEB"/>
<path d="M960.413 832.896H941.208V849.748H960.413V832.896Z" fill="#D2DCEB"/>
<path d="M974.091 676.807H927.535V708.71H974.091V676.807Z" fill="#A6AEBA"/>
<path d="M1010.95 667.268H886.024C884.655 667.268 883.545 668.377 883.545 669.746V688.679C883.545 690.048 884.655 691.157 886.024 691.157H1010.95C1012.32 691.157 1013.43 690.048 1013.43 688.679V669.746C1013.43 668.377 1012.32 667.268 1010.95 667.268Z" fill="#A6AEBA"/>
<path d="M997.08 865.844L960.417 847.668V834.995L1001.9 862.793L997.08 865.844Z" fill="#A6AEBA"/>
<path d="M1001.9 878C1006.64 878 1010.49 874.153 1010.49 869.409C1010.49 864.664 1006.64 860.818 1001.9 860.818C997.151 860.818 993.305 864.664 993.305 869.409C993.305 874.153 997.151 878 1001.9 878Z" fill="#A6AEBA"/>
<path d="M950.813 878C955.558 878 959.405 874.153 959.405 869.409C959.405 864.664 955.558 860.818 950.813 860.818C946.068 860.818 942.221 864.664 942.221 869.409C942.221 874.153 946.068 878 950.813 878Z" fill="#A6AEBA"/>
<path d="M904.541 865.844L941.208 847.668V834.995L899.729 862.793L904.541 865.844Z" fill="#A6AEBA"/>
<path d="M899.73 878C904.475 878 908.321 874.153 908.321 869.409C908.321 864.664 904.475 860.818 899.73 860.818C894.984 860.818 891.138 864.664 891.138 869.409C891.138 874.153 894.984 878 899.73 878Z" fill="#A6AEBA"/>
<path d="M953.136 841.322H948.485V869.303H953.136V841.322Z" fill="#A6AEBA"/>
<path d="M1035.02 680.353C1037.11 680.425 1039.15 679.777 1040.82 678.518C1042.48 677.258 1043.66 675.465 1044.16 673.439C1047.3 660.5 1053 636.326 1053.13 575.992C1053.27 509.395 1088.18 458.752 1092.95 437.405C1093.6 434.525 1093.3 431.513 1092.12 428.81C1090.93 426.108 1088.9 423.857 1086.34 422.386V422.386C1083.5 420.75 1080.28 419.889 1077 419.889H940.187C940.187 419.889 892.609 504.988 886.368 534.146C880.126 563.305 871.411 675.235 871.411 675.235L1035.02 680.353Z" fill="#D0DFE1"/>
<path d="M1031.25 680.578C1031.25 680.578 1042.06 659.387 1042.24 575.997C1042.39 507.334 1077.11 450.766 1081.04 428.92C1081.24 427.813 1081.2 426.676 1080.91 425.589C1080.62 424.501 1080.09 423.491 1079.37 422.629C1078.65 421.767 1077.74 421.074 1076.72 420.6C1075.7 420.126 1074.59 419.881 1073.47 419.885H929.285C929.285 419.885 881.708 504.983 875.466 534.142C869.225 563.301 860.51 675.231 860.51 675.231L1031.25 680.578Z" fill="#B0BEBF"/>
<path d="M881.08 655.199H1042.14V674.571C1042.14 676.162 1041.51 677.687 1040.38 678.812C1039.26 679.937 1037.73 680.568 1036.14 680.568H881.08V655.199Z" fill="#D0DFE1"/>
<rect x="765.244" y="128.292" width="109.975" height="105.382" fill="#E9F2F4"/>
<path d="M840.279 655.199H893.695C894.681 655.199 895.658 655.393 896.569 655.77C897.48 656.148 898.308 656.701 899.005 657.398C899.703 658.096 900.256 658.924 900.633 659.835C901.011 660.746 901.205 661.722 901.205 662.709V662.709V680.578H840.261C838.275 680.569 836.373 679.774 834.972 678.366C833.571 676.959 832.786 675.054 832.787 673.068V662.718C832.784 660.728 833.572 658.818 834.977 657.408C836.382 655.998 838.289 655.204 840.279 655.199Z" fill="#B0BEBF"/>
<path d="M909.614 394.859C898.465 405.956 897.7 461.721 886.432 490.665C886.432 490.665 809.564 520.713 774.527 529.537L786.689 542.366C786.689 542.366 890.84 517.336 904.046 508.548C924.236 495.119 935.971 440.778 937.895 413.594C939.82 386.41 921.266 383.262 909.614 394.859Z" fill="#F7D4B2"/>
<path d="M783.073 531.553L774.527 529.542C774.527 529.542 756.95 527.933 751.323 527.132C745.696 526.33 738.951 532.758 731.28 535.168C725.981 536.978 720.907 539.39 716.158 542.357H722.298L734.822 544.41L746.113 542.357C753.162 541.682 760.261 541.682 767.31 542.357C773.758 543.043 780.26 543.043 786.707 542.357L783.073 531.553Z" fill="#F7D4B2"/>
<path d="M859.149 587.754C835.298 595.658 806.044 608.331 797.48 616.299C788.916 624.267 772.039 635.579 785.649 679.368C794.355 707.345 832.255 849.075 832.255 849.075L851.464 845.657C851.464 845.657 844.641 763.536 837.804 702.098C834.491 672.316 833.364 664.01 833.364 664.01L859.149 653.513C891.834 640.083 880.631 583.951 880.631 583.951L859.149 587.754Z" fill="#F7D4B2"/>
<path d="M805.751 607.745C797.187 615.713 791.129 613.046 778.257 657.059C770.041 685.182 740.078 827.013 740.078 827.013L757.976 834.802C782.18 766.991 782.148 767.074 810.43 712.05C818.934 695.199 825.462 677.421 829.882 659.071L882.161 655.932C914.847 642.503 903.643 594.797 903.643 594.797C903.643 594.797 814.32 599.759 805.751 607.745Z" fill="#FFE0BC"/>
<path d="M1003.8 565.573C1003.8 588.482 1020.38 613.774 1001.16 639.799C983.787 663.354 882.175 655.886 882.175 655.886C882.175 655.886 896.508 631.066 882.899 612.276C874.192 600.267 854.149 589.147 854.149 589.147L910.97 570.787L956.605 535.342L1003.8 565.573Z" fill="#FFD04D"/>
<path d="M946.781 389.805C943.706 400.251 921.908 400.045 905.81 380.54C889.713 361.035 878.055 327.789 894.116 304.303C910.177 280.816 931.659 326.296 938.977 350.497C943.121 363.246 945.74 376.44 946.781 389.805V389.805Z" fill="#B56537"/>
<path d="M896.055 303.973C891.738 309.1 895.871 328.628 896.627 331.528C898.089 337.136 895.253 344.857 896.87 346.158C898.505 346.878 900.289 347.193 902.071 347.074C902.365 347.143 909.93 361.979 911.268 365.054C913.307 369.732 924.277 361.443 927.595 364.953C930 367.5 930.106 372.215 930.921 378.066L924.506 403.967L976.854 393.887C969.638 383.33 963.226 372.246 957.673 360.728C953.769 350.323 958.649 338.946 957.347 324.967C956.046 310.988 949.805 293.022 930.037 291.158C923.759 290.394 917.389 291.161 911.472 293.392C905.554 295.624 900.265 299.254 896.055 303.973V303.973Z" fill="#FFE0BC"/>
<path d="M912.61 567.828C924.227 565.968 936.066 565.968 947.683 567.828C969.458 570.742 1001.73 564.62 1001.73 564.62C1001.73 564.62 988.507 496.438 989.318 465.511C990.129 434.583 992.576 401.223 992.576 401.223L934.587 391.459C934.587 391.459 920.547 396.499 912.592 419.129C904.637 441.758 905.916 539.48 912.61 567.828Z" fill="#E4DDD7"/>
<path d="M930.921 378.048C926.651 382.323 912.592 387.812 912.592 393.915C912.592 400.018 901.595 452.507 902.218 463.495C902.841 474.482 906.864 516.222 904.422 529.038C902.721 542.716 901.905 556.491 901.98 570.274L912.592 567.832C912.592 567.832 909.54 495.238 912.592 468.406C915.644 441.575 934.587 392.114 934.587 392.114L927.466 389.672L930.921 378.048Z" fill="#133A50"/>
<path d="M952.023 392.087L934.61 391.477C934.61 391.477 928.745 418.331 928.745 470.042C929.619 504.265 932.597 538.401 937.662 572.258C947.912 575.803 958.641 577.769 969.481 578.091C980.554 578.436 991.568 576.353 1001.75 571.988C999.982 543.99 999.982 515.909 1001.75 487.911C1004.8 446.409 1015.9 436.97 1013.76 409.786C1010.2 364.701 969.399 380.49 969.399 380.49L952.023 392.087Z" fill="#133A50"/>
<path d="M934.583 391.477C934.583 391.477 962.663 378.048 966.934 369.484C968.457 372.955 969.287 376.691 969.376 380.481C968.766 384.146 941.91 409.777 941.91 409.777L934.583 391.477Z" fill="#FFD04D"/>
<path d="M957.842 394.68C964.716 360.027 946.295 349.837 926.137 337.484C913.125 328.945 902.184 317.607 894.116 304.298C894.116 304.298 901.906 278.938 924.68 273.737C947.454 268.537 976.511 282.727 983.856 318.603C989.061 344.037 995.871 353.003 1013.12 365.42C1033.92 380.398 1040.15 418.569 1015.87 436.965C993.415 453.982 1006.4 413.566 998.066 390.877C996.654 387.037 979.196 406.551 969.445 409.781C959.226 413.172 956.738 400.256 957.842 394.68Z" fill="#B56537"/>
<path d="M930.921 378.048C930.422 380.417 930.494 382.87 931.132 385.205C931.769 387.541 932.954 389.691 934.587 391.477L924.213 406.139C924.213 406.139 921.161 394.542 924.213 389.644C927.265 384.746 930.921 378.048 930.921 378.048Z" fill="#FFD04D"/>
<path d="M830.917 838.802C830.917 838.802 831.476 843.962 839.743 846.289C842.248 846.882 844.868 846.776 847.317 845.983C849.766 845.189 851.95 843.739 853.632 841.79L855.465 858.642L829.066 877.253H807.126L818.989 864.09L830.917 838.802Z" fill="#133A50"/>
<path d="M742.919 815.458C741.843 817.494 741.583 819.863 742.192 822.085C742.8 824.306 744.232 826.212 746.195 827.416C748.401 828.743 750.929 829.44 753.503 829.429C756.077 829.419 758.599 828.702 760.794 827.357L757.408 843.97L695.089 824.47L742.919 815.458Z" fill="#133A50"/>
<path d="M984.731 400.1C978.706 414.629 961.013 462.344 949.736 491.279C949.736 491.279 867.823 517.514 832.787 526.339L844.948 539.168C844.948 539.168 944.842 523.874 966.521 513.776C988.516 503.535 1009.32 433.094 1013.01 414.611C1018.34 387.89 991.22 384.412 984.731 400.1Z" fill="#FFE0BC"/>
<path d="M841.305 528.364L832.759 526.357C832.759 526.357 815.182 524.749 809.554 523.947C803.927 523.146 797.182 529.574 789.511 531.984C784.212 533.794 779.139 536.206 774.39 539.173H780.53L793.054 541.226L804.349 539.173C811.399 538.497 818.497 538.497 825.547 539.173C831.994 539.859 838.496 539.859 844.944 539.173L841.305 528.364Z" fill="#FFE0BC"/>
<path d="M669.79 238.416L692.014 289.939L686.314 292.395L664.08 240.845C663.959 240.564 663.954 240.246 664.067 239.962C664.179 239.678 664.4 239.45 664.681 239.328V239.328L668.282 237.793C668.565 237.676 668.882 237.676 669.165 237.793C669.448 237.91 669.672 238.134 669.79 238.416V238.416Z" fill="#364469"/>
<path d="M669.657 251.007L673.364 249.408L667.128 234.952C666.915 234.461 666.516 234.074 666.019 233.877C665.522 233.679 664.966 233.687 664.474 233.898V233.898C663.983 234.111 663.596 234.509 663.399 235.007C663.201 235.504 663.209 236.059 663.421 236.551L669.657 251.007Z" fill="#364469"/>
<path d="M627.11 299.254C627.11 299.254 648.959 359.276 656.895 358.973C662.852 358.758 702.805 304.17 709.234 294.718C715.663 285.265 728.136 263.062 728.136 263.062L711.883 258.022C711.883 258.022 683.931 291.707 676.728 297.755C669.524 303.803 666.523 306.072 666.523 306.072L658.201 283.35L627.11 299.254Z" fill="#F7D4B2"/>
<path d="M639.194 236.739C647.992 239.08 651.03 246.906 654.81 263.066C657.367 273.686 660.462 284.17 664.085 294.475L635.152 307.95C635.152 307.95 629.933 279.226 628.008 261.082C626.084 242.938 631.518 234.696 639.194 236.739Z" fill="#364469"/>
<path d="M520.375 854.573V875.823H561.217C561.217 875.823 559.682 868.13 540.313 864.584L537.462 854.577H520.375V854.573Z" fill="#133A50"/>
<path d="M606.692 854.573V875.823H647.534C647.534 875.823 645.999 868.13 626.629 864.584L623.779 854.577H606.692V854.573Z" fill="#133A50"/>
<path d="M529.301 426.107C529.301 426.107 521.869 493.671 521.608 566.252C521.346 638.833 517.025 854.504 517.025 854.504H546.352C546.352 854.504 576.595 646.09 587.565 599.433C598.535 552.776 627.12 426.982 627.12 426.982L529.301 426.107Z" fill="#133A50"/>
<path d="M574.368 180.745C574.368 180.745 572.471 195.521 570.913 203.04C570.134 207.775 568.791 212.401 566.913 216.817C561.438 224.162 555.374 231.048 548.781 237.408C548.781 237.408 597.385 263.066 611.673 263.066C625.96 263.066 620.952 234.407 620.952 234.407C620.952 234.407 605.372 222.096 603.049 215.873C601.137 207.915 599.927 199.805 599.433 191.636L574.368 180.745Z" fill="#FFE0BC"/>
<path d="M593.046 500.255C593.046 500.255 598.544 610.851 599.64 632.624C600.735 654.397 599.64 854.385 599.64 854.385C599.64 854.385 627.11 855.128 627.11 854.385C627.11 853.643 653.01 643.483 656.364 589.825C659.718 536.167 657.738 472.562 662.206 465.139C666.674 457.717 650.182 426.446 650.182 426.446L611.301 436.815L593.046 500.255Z" fill="#133A50"/>
<path d="M558.678 222.962L508.731 244.496C508.731 244.496 518.611 284.936 519.161 301.009C519.711 317.082 525.475 444.049 525.475 444.049C525.475 444.049 540.817 467.811 614.628 458.349C643.089 454.684 657.083 440.828 657.083 440.828C657.083 440.828 649.105 301.009 646.906 284.936C644.706 268.862 639.217 236.721 639.217 236.721L615.128 229.312L605.303 243.974L558.678 222.962Z" fill="#E9F2F4"/>
<path d="M560.905 214.251L605.294 243.983L593.091 258.008L558.678 222.962L560.905 214.251Z" fill="#364469"/>
<path d="M605.294 243.983L617.4 253.701L615.118 229.33L610.587 222.962L605.294 243.983Z" fill="#364469"/>
<path d="M652.056 331.125L694.727 343.45C696.914 344.025 699.232 343.839 701.301 342.923C703.369 342.008 705.064 340.416 706.109 338.41L747.661 249.637C748.121 248.739 748.369 247.749 748.389 246.741C748.408 245.733 748.197 244.734 747.773 243.819C747.349 242.905 746.721 242.099 745.939 241.463C745.157 240.827 744.24 240.377 743.258 240.148L700.963 227.653C693.26 226.897 689.411 228.4 687.459 232.487L645.829 320.587C643.863 324.72 644.61 327.597 652.056 331.125Z" fill="#97A3CC"/>
<path d="M654.485 332.018L697.362 344.426C699.56 345.011 701.892 344.831 703.974 343.915C706.056 342.999 707.764 341.402 708.817 339.386L750.516 250.214C750.976 249.312 751.224 248.316 751.241 247.304C751.258 246.291 751.045 245.288 750.616 244.37C750.188 243.452 749.556 242.644 748.768 242.007C747.981 241.37 747.058 240.921 746.071 240.693L703.566 228.171C701.31 227.538 698.906 227.693 696.749 228.609C694.593 229.525 692.813 231.148 691.702 233.211L649.706 322.099C649.23 323.05 648.979 324.097 648.971 325.16C648.964 326.223 649.199 327.274 649.661 328.231C650.122 329.189 650.797 330.028 651.633 330.685C652.47 331.341 653.445 331.798 654.485 332.018Z" fill="url(#paint0_linear)"/>
<path d="M530.625 308.138C530.625 308.138 570.299 373.979 575.592 376.247C580.884 378.515 649.334 333.952 662.197 325.636C675.06 317.32 685.805 309.142 687.4 307.827C689.718 303.146 691.494 298.216 692.692 293.133C692.038 292.389 691.437 291.598 690.896 290.768L689.196 291.685L690.112 286.347L688.504 283.323L686.946 283.841L686.424 278.439L684.059 274.375C684.059 274.375 677.319 281.999 673.158 286.535C670.401 289.471 667.362 292.129 664.085 294.471C664.278 291.572 664.278 288.664 664.085 285.765C664.055 283.603 664.309 281.446 664.841 279.351L658.21 283.337C658.21 283.337 652.368 301.765 651.232 303.222C649.408 307.596 646.68 311.535 643.228 314.782C639.775 318.029 635.676 320.51 631.198 322.062C616.72 327.763 601.967 332.736 586.992 336.963C588.115 336.802 561.112 287.758 561.112 287.758L530.625 308.138Z" fill="#FFE0BC"/>
<path d="M506.839 269.408C510.615 287.341 536.876 326.479 536.876 326.479L569.085 302.347C569.085 302.347 556.474 277.146 549.436 263.928C541.646 249.307 534.383 231.548 520.599 236.73C507.292 241.72 503.814 255.03 506.839 269.408Z" fill="#364469"/>
<path d="M630.836 142.949C634.273 146.06 639.973 152.319 639.515 155.971C639 162.879 637.983 169.741 636.472 176.502C634.639 182.554 631.106 198.43 628.517 205.399C625.928 212.368 622.94 221.931 620.796 222.81C612.387 222.693 604.076 220.983 596.304 217.77C592.761 215.173 573.997 194.55 577.974 179.283C577.974 179.283 573.053 179.924 570.033 164.846C569.245 160.914 585.228 149.725 587.716 145.84C593.756 136.365 615.792 143.824 622.084 144.31C625.071 144.879 628.163 144.398 630.836 142.949V142.949Z" fill="#FFE0BC"/>
<path d="M639.515 155.952C639.266 154.588 638.486 153.379 637.345 152.59C636.205 151.801 634.798 151.497 633.434 151.746H633.393C626.1 152.741 618.68 152.225 611.595 150.229C606.813 148.774 602.252 146.671 598.04 143.98C597.325 148.117 595.823 152.079 593.614 155.65C591.187 158.397 589.477 161.703 588.637 165.271C588.201 166.25 587.541 167.114 586.711 167.792C585.881 168.471 584.904 168.946 583.858 169.18C583.858 169.18 582.089 160.694 578.286 160.099C570.748 158.916 571.66 169.093 574.762 172.405C576.746 174.502 578.873 176.458 581.127 178.261C580.581 180.849 579.772 183.375 578.712 185.798C577.002 188.595 574.921 191.147 572.526 193.386C572.526 193.386 570.537 173.148 565.749 163.865C560.96 154.582 561.258 137.506 575.083 133.913C576.252 129.298 579.061 125.265 582.985 122.567C586.909 119.869 591.68 118.691 596.409 119.251C614.578 120.026 629.09 127.283 637.1 126.514C640.698 126.474 644.244 125.647 647.488 124.09C647.488 124.09 651.488 137.226 646.278 144.19C643.455 147.755 641.176 151.719 639.515 155.952Z" fill="#8B4200"/>
<path d="M785.433 541.45H768.447L751.46 433.099H764.378L785.433 541.45Z" fill="#A6AEBA"/>
<path d="M780.558 541.45H714.266L697.284 433.099H763.571L780.558 541.45Z" fill="#D2DCEB"/>
<path d="M785.433 538.994H713.377V547.076H785.433V538.994Z" fill="#D2DCEB"/>
<path d="M876.282 538.994H785.433V547.076H876.282V538.994Z" fill="#A6AEBA"/>
<path d="M744.161 492.543C746.081 500.836 744.729 509.798 741.146 512.552C737.562 515.306 733.099 510.82 731.184 502.523C729.268 494.225 730.615 485.267 734.199 482.514C737.782 479.76 742.231 484.25 744.161 492.543Z" fill="#A6AEBA"/>
<path d="M952.49 547.919H136.543V563.599H952.49V547.919Z" fill="#DBDBDB"/>
<path d="M223.621 876.355H231.489L295.654 563.598H279.401L223.621 876.355Z" fill="#DBDBDB"/>
<path d="M829.066 876.355H821.194L757.032 563.598H773.286L829.066 876.355Z" fill="#DBDBDB"/>
<path d="M820.231 142.037H783.573V219.928H820.231V142.037Z" fill="white"/>
<path d="M848.454 169.23C856.023 169.23 862.159 163.095 862.159 155.526C862.159 147.957 856.023 141.822 848.454 141.822C840.884 141.822 834.748 147.957 834.748 155.526C834.748 163.095 840.884 169.23 848.454 169.23Z" fill="#536DFE"/>
<path d="M847.372 160.919L841.03 152.759L846.776 155.16L859.987 143.609L847.372 160.919Z" fill="white"/>
<path d="M848.454 209.894C856.023 209.894 862.159 203.759 862.159 196.19C862.159 188.621 856.023 182.486 848.454 182.486C840.884 182.486 834.748 188.621 834.748 196.19C834.748 203.759 840.884 209.894 848.454 209.894Z" fill="#536DFE"/>
<path d="M847.372 201.587L841.03 193.423L846.776 195.828L859.987 184.273L847.372 201.587Z" fill="white"/>
<rect x="765.244" y="105.382" width="109.975" height="22.9092" fill="#E9F2F4"/>
<rect x="769.826" y="109.964" width="100.811" height="13.7455" fill="#536DFE"/>
<defs>
<linearGradient id="paint0_linear" x1="772.585" y1="312.325" x2="676.061" y2="264.177" gradientUnits="userSpaceOnUse">
<stop stop-color="#EEF4FB"/>
<stop offset="0.311" stop-color="#E3EDF8"/>
<stop offset="1" stop-color="#CFE1F3"/>
</linearGradient>
</defs>
</svg>
