<svg width="1026" height="861" viewBox="0 0 1026 861" fill="none" xmlns="http://www.w3.org/2000/svg">
<g clip-path="url(#clip0)">
<path d="M651.814 361.653C493.701 266.171 419.096 -27.1759 175.028 148.121C-69.0402 323.418 32.1663 683.568 266.049 770.672C499.931 857.775 800.846 808.568 885.527 646.758C1030.22 370.27 757.87 425.704 651.814 361.653Z" fill="#F0F0F0"/>
<path d="M651.814 361.653C493.701 266.171 419.096 -27.1759 175.028 148.121C-69.0402 323.418 32.1663 683.568 266.049 770.672C499.931 857.775 800.846 808.568 885.527 646.758C1030.22 370.27 757.87 425.704 651.814 361.653Z" fill="#F0F0F0"/>
<path d="M10.4836 701.041C10.4836 701.041 145.305 565.931 370.487 630.032C595.669 694.133 728.248 639.194 700.29 299.453C700.29 299.453 1016.79 343.585 976.213 568.341C926.971 841.117 291.316 945.199 10.4836 701.041Z" fill="#F0F0F0"/>
<path d="M668.353 343.328C510.272 247.846 435.649 -45.5008 191.581 129.796C-52.4874 305.093 48.7191 665.243 282.606 752.347C516.493 839.45 817.403 790.243 902.084 628.433C1046.78 351.945 774.423 407.379 668.353 343.328Z" fill="#536DFE"/>
<path d="M27.0459 682.716C27.0459 682.716 161.867 547.606 387.049 611.707C612.231 675.807 744.811 620.869 716.852 281.128C716.852 281.128 1033.35 325.259 992.775 550.016C943.524 822.792 307.869 926.874 27.0459 682.716Z" fill="#536DFE"/>
<path d="M322.313 127.556V259.299C322.311 261.999 321.777 264.673 320.741 267.167C319.705 269.662 318.187 271.927 316.274 273.835C314.361 275.743 312.091 277.255 309.593 278.286C307.096 279.316 304.419 279.845 301.717 279.841H20.5961C17.8937 279.845 15.2169 279.317 12.7189 278.287C10.2208 277.257 7.95047 275.744 6.03764 273.836C4.12482 271.929 2.60702 269.663 1.57104 267.168C0.535056 264.674 0.00120154 262 0 259.299L0 127.556C0.00120224 124.855 0.535023 122.181 1.57095 119.686C2.60688 117.191 4.1246 114.925 6.03736 113.017C7.95013 111.109 10.2204 109.596 12.7185 108.565C15.2166 107.534 17.8934 107.005 20.5961 107.009H301.717C304.42 107.005 307.096 107.534 309.595 108.565C312.093 109.596 314.363 111.109 316.276 113.017C318.188 114.925 319.706 117.191 320.742 119.686C321.778 122.181 322.312 124.855 322.313 127.556V127.556Z" fill="#D1E8E6"/>
<path d="M322.313 127.556V138.959H0V127.556C0.00120224 124.855 0.535023 122.181 1.57095 119.686C2.60688 117.191 4.1246 114.925 6.03736 113.017C7.95013 111.109 10.2204 109.596 12.7185 108.565C15.2166 107.534 17.8934 107.005 20.5961 107.009H301.717C304.42 107.005 307.096 107.534 309.595 108.565C312.093 109.596 314.363 111.109 316.276 113.017C318.188 114.925 319.706 117.191 320.742 119.686C321.778 122.181 322.312 124.855 322.313 127.556V127.556Z" fill="#3D415B"/>
<path d="M18.1666 128.82C20.5514 128.82 22.4847 126.888 22.4847 124.504C22.4847 122.121 20.5514 120.189 18.1666 120.189C15.7817 120.189 13.8484 122.121 13.8484 124.504C13.8484 126.888 15.7817 128.82 18.1666 128.82Z" fill="white"/>
<path d="M35.4484 128.82C37.8333 128.82 39.7666 126.888 39.7666 124.504C39.7666 122.121 37.8333 120.189 35.4484 120.189C33.0636 120.189 31.1302 122.121 31.1302 124.504C31.1302 126.888 33.0636 128.82 35.4484 128.82Z" fill="white"/>
<path d="M52.7348 128.82C55.1197 128.82 57.053 126.888 57.053 124.504C57.053 122.121 55.1197 120.189 52.7348 120.189C50.35 120.189 48.4167 122.121 48.4167 124.504C48.4167 126.888 50.35 128.82 52.7348 128.82Z" fill="white"/>
<path d="M43.8096 158.053H108.523C109.536 158.053 110.509 158.456 111.226 159.172C111.943 159.889 112.346 160.861 112.346 161.874V214.219C112.346 215.233 111.943 216.204 111.226 216.921C110.509 217.637 109.536 218.04 108.523 218.04H43.8096C42.7944 218.04 41.8209 217.637 41.103 216.92C40.3852 216.202 39.9819 215.229 39.9819 214.215V161.878C39.9813 161.376 40.0799 160.878 40.2721 160.414C40.4642 159.949 40.7461 159.528 41.1017 159.172C41.4572 158.817 41.8794 158.535 42.3441 158.343C42.8088 158.151 43.3068 158.053 43.8096 158.053V158.053Z" fill="white"/>
<path d="M277.742 246.109H39.9957C38.7896 246.109 37.633 245.631 36.7802 244.778C35.9274 243.926 35.4483 242.77 35.4483 241.565C35.4483 240.36 35.9274 239.204 36.7802 238.351C37.633 237.499 38.7896 237.02 39.9957 237.02H277.742C278.948 237.02 280.105 237.499 280.958 238.351C281.811 239.204 282.29 240.36 282.29 241.565C282.29 242.77 281.811 243.926 280.958 244.778C280.105 245.631 278.948 246.109 277.742 246.109Z" fill="white"/>
<path d="M277.742 211.782H133.51C132.304 211.782 131.147 211.303 130.295 210.451C129.442 209.599 128.963 208.443 128.963 207.237V207.237C128.963 206.032 129.442 204.876 130.295 204.024C131.147 203.172 132.304 202.693 133.51 202.693H277.742C278.948 202.693 280.105 203.172 280.958 204.024C281.811 204.876 282.29 206.032 282.29 207.237V207.237C282.29 208.443 281.811 209.599 280.958 210.451C280.105 211.303 278.948 211.782 277.742 211.782V211.782Z" fill="white"/>
<path d="M222.839 179.53H133.51C132.304 179.53 131.147 179.051 130.295 178.199C129.442 177.347 128.963 176.191 128.963 174.985C128.963 173.78 129.442 172.624 130.295 171.772C131.147 170.919 132.304 170.441 133.51 170.441H222.839C224.045 170.441 225.202 170.919 226.055 171.772C226.908 172.624 227.387 173.78 227.387 174.985V174.985C227.387 176.191 226.908 177.347 226.055 178.199C225.202 179.051 224.045 179.53 222.839 179.53Z" fill="white"/>
<path d="M666.74 110.587C671.982 104.528 677.541 98.751 683.393 93.2786C694.789 83.4839 707.858 66.1668 749.66 78.9301C752.896 79.975 756.076 81.1876 759.186 82.5631C762.853 84.1253 774.286 84.1619 785.975 74.8895C804.55 60.147 811.815 49.0283 837.266 48.6802C866.879 48.277 871.536 85.1698 894.566 94.6118C909.235 100.622 947.856 106.596 955.846 109.272L666.74 110.587Z" fill="#D1E8E6"/>
<path d="M438.266 220.816L436.13 214.7L433.994 220.816C432.944 223.531 431.349 226.003 429.308 228.08C427.268 230.156 424.823 231.794 422.126 232.892V232.892C424.823 233.99 427.268 235.628 429.309 237.705C431.35 239.781 432.944 242.253 433.994 244.969L436.13 251.084L438.266 244.969C439.319 242.253 440.917 239.781 442.961 237.705C445.005 235.629 447.452 233.993 450.153 232.897C447.452 231.8 445.004 230.163 442.959 228.085C440.915 226.008 439.318 223.534 438.266 220.816Z" fill="white"/>
<path d="M245.246 570.366L243.11 564.25L240.997 570.366C239.947 573.081 238.352 575.553 236.311 577.629C234.27 579.706 231.826 581.344 229.129 582.442V582.442C231.826 583.54 234.27 585.178 236.311 587.255C238.352 589.331 239.947 591.803 240.997 594.518L243.133 600.634L245.269 594.518C246.319 591.803 247.913 589.331 249.954 587.254C251.995 585.178 254.44 583.54 257.137 582.442V582.442C254.435 581.347 251.987 579.71 249.942 577.633C247.897 575.556 246.299 573.083 245.246 570.366V570.366Z" fill="white"/>
<path d="M823.885 533.523L822.473 529.487L821.066 533.523C820.373 535.314 819.321 536.945 817.975 538.315C816.628 539.685 815.016 540.766 813.236 541.49V541.49C815.016 542.215 816.628 543.295 817.975 544.665C819.321 546.035 820.373 547.666 821.066 549.457L822.473 553.493L823.885 549.457C824.578 547.666 825.63 546.035 826.976 544.665C828.323 543.295 829.935 542.215 831.715 541.49V541.49C829.935 540.766 828.323 539.685 826.976 538.315C825.63 536.945 824.578 535.314 823.885 533.523Z" fill="white"/>
<path d="M151.984 330.62L150.572 326.583L149.165 330.62C148.472 332.411 147.42 334.042 146.074 335.412C144.727 336.782 143.115 337.862 141.335 338.586V338.586C143.115 339.311 144.727 340.391 146.074 341.761C147.42 343.131 148.472 344.762 149.165 346.553L150.572 350.589L151.984 346.553C152.677 344.762 153.729 343.131 155.075 341.761C156.422 340.391 158.034 339.311 159.814 338.586V338.586C158.034 337.862 156.422 336.781 155.075 335.411C153.729 334.041 152.677 332.411 151.984 330.62V330.62Z" fill="white"/>
<path d="M609.219 7.16217e-06H475.411C473.677 -0.0017986 471.96 0.337871 470.357 0.999607C468.755 1.66134 467.298 2.63217 466.072 3.85662C464.845 5.08106 463.871 6.53512 463.207 8.1357C462.542 9.73628 462.2 11.452 462.2 13.1848V85.4266C462.2 87.1594 462.542 88.8751 463.207 90.4757C463.871 92.0763 464.845 93.5303 466.072 94.7548C467.298 95.9792 468.755 96.9501 470.357 97.6118C471.96 98.2735 473.677 98.6132 475.411 98.6114H482.612V131.665L515.686 98.6114H609.201C610.935 98.6138 612.653 98.2746 614.256 97.6131C615.859 96.9517 617.316 95.9809 618.543 94.7564C619.77 93.5319 620.744 92.0776 621.409 90.4768C622.073 88.8759 622.416 87.1598 622.417 85.4266V13.1848C622.415 9.68759 621.024 6.33398 618.549 3.86148C616.075 1.38897 612.718 6.9512e-06 609.219 7.16217e-06V7.16217e-06Z" fill="#C5E0E2"/>
<path d="M494.192 70.7666H525.757C526.927 70.7666 528.049 71.2309 528.876 72.0574C529.703 72.8839 530.167 74.0049 530.167 75.1738C530.167 76.3426 529.703 77.4636 528.876 78.2901C528.049 79.1166 526.927 79.5809 525.757 79.5809H494.192C493.022 79.5809 491.9 79.1166 491.073 78.2901C490.246 77.4636 489.782 76.3426 489.782 75.1738C489.782 74.0049 490.246 72.8839 491.073 72.0574C491.9 71.2309 493.022 70.7666 494.192 70.7666Z" fill="white"/>
<path d="M494.192 48.6987H552.377C553.546 48.6987 554.668 49.1631 555.495 49.9896C556.322 50.8161 556.787 51.937 556.787 53.1059V53.1059C556.787 54.2747 556.322 55.3957 555.495 56.2222C554.668 57.0487 553.546 57.5131 552.377 57.5131H494.192C493.022 57.5131 491.9 57.0487 491.073 56.2222C490.246 55.3957 489.782 54.2747 489.782 53.1059C489.782 51.937 490.246 50.8161 491.073 49.9896C491.9 49.1631 493.022 48.6987 494.192 48.6987V48.6987Z" fill="white"/>
<path d="M494.192 27.2493H594.188C595.358 27.2493 596.479 27.7136 597.306 28.5401C598.133 29.3666 598.598 30.4876 598.598 31.6564V31.6564C598.598 32.8253 598.133 33.9463 597.306 34.7728C596.479 35.5993 595.358 36.0636 594.188 36.0636H494.192C493.022 36.0636 491.9 35.5993 491.073 34.7728C490.246 33.9463 489.782 32.8253 489.782 31.6564C489.782 30.4876 490.246 29.3666 491.073 28.5401C491.9 27.7136 493.022 27.2493 494.192 27.2493Z" fill="white"/>
<path d="M526.248 619.866H681.188C696.201 619.862 710.685 614.323 721.865 604.309C733.045 594.295 740.134 580.51 741.776 565.597L764.118 333.185H609.269L606.106 467.943L526.248 619.866Z" fill="#DFE2EF"/>
<path d="M526.248 617.365L546.771 616.618L570.323 615.903C579.418 615.573 589.682 615.482 600.871 615.234L637.017 614.533L677.356 614.176H679.983H681.032L682.353 614.103C684.044 613.97 686.02 613.993 687.505 613.727C688.99 613.461 690.499 613.319 692.057 612.976C693.616 612.632 695.211 612.234 696.769 611.775C703.069 609.862 708.97 606.826 714.189 602.815C724.96 594.647 732.376 582.829 735.042 569.582L735.812 564.634L736.357 559.073L737.448 547.963L739.612 525.9L743.875 482.992L751.971 406.971L758.131 353.214L760.589 332.846C760.708 331.932 761.178 331.101 761.9 330.526C762.621 329.952 763.537 329.68 764.455 329.768C765.373 329.856 766.221 330.297 766.82 330.998C767.419 331.698 767.723 332.604 767.666 333.524L766.199 353.989L761.973 407.905L755.45 484.073L751.462 527.004L749.381 549.076L748.335 560.191L747.813 565.757C747.552 567.864 747.208 569.825 746.896 571.868C744.609 583.883 739.026 595.026 730.769 604.052C722.513 613.079 711.908 619.634 700.139 622.986C698.241 623.517 696.307 623.902 694.4 624.36C692.493 624.818 690.379 624.951 688.385 625.226C686.391 625.501 684.768 625.418 682.949 625.533L681.628 625.583H680.042H677.416L637.076 625.226L600.931 624.525C589.737 624.278 579.478 624.181 570.383 623.856L546.83 623.142L526.307 622.395C525.64 622.403 524.997 622.145 524.519 621.679C524.042 621.213 523.769 620.577 523.761 619.909C523.753 619.242 524.011 618.6 524.477 618.122C524.943 617.645 525.58 617.373 526.248 617.365V617.365Z" fill="#3D415B"/>
<path d="M614.857 624.26V788.396" stroke="#3D415B" stroke-width="2.496" stroke-miterlimit="10"/>
<path d="M144.691 478.246L644.113 478.246V470.48L144.691 470.48V478.246Z" fill="#3D415B"/>
<path d="M585.212 819.379L590.516 838.368L564.708 846.184L556.636 822.737L585.212 819.379Z" fill="#FFE0BC"/>
<path d="M429.41 805.599V820.845H452.257L454.81 805.599H429.41Z" fill="#FFE0BC"/>
<path d="M604.901 364.516L570.392 449.645L569.627 451.537C568.645 453.942 566.966 456 564.805 457.444C562.645 458.888 560.101 459.653 557.502 459.641L459.238 458.936C457.427 458.92 455.688 458.221 454.369 456.98C453.05 455.739 452.248 454.046 452.123 452.24C451.998 450.433 452.559 448.646 453.694 447.236C454.83 445.825 456.456 444.894 458.248 444.628L555.485 430.427L542.594 440.418L565.826 351.542C566.511 348.923 567.705 346.464 569.341 344.305C570.977 342.147 573.022 340.332 575.359 338.964C577.697 337.596 580.281 336.701 582.965 336.331C585.648 335.96 588.379 336.122 591 336.806C593.621 337.491 596.081 338.684 598.241 340.319C600.4 341.954 602.216 343.997 603.586 346.334C604.955 348.67 605.85 351.252 606.22 353.934C606.591 356.616 606.429 359.345 605.744 361.964C605.513 362.831 605.232 363.683 604.901 364.516Z" fill="#EFC9A3"/>
<path d="M469.91 442.929L436.355 442.233C432.149 442.47 428.208 444.362 425.394 447.494C422.579 450.627 421.119 454.745 421.333 458.95H470.323L469.91 442.929Z" fill="#EFC9A3"/>
<path d="M550.571 374.879L604.3 387.99L613.116 340.135C613.657 337.058 613.571 333.903 612.862 330.86C612.153 327.817 610.835 324.949 608.989 322.428C607.143 319.907 604.806 317.784 602.118 316.189C599.43 314.593 596.448 313.557 593.349 313.142V313.142C588.006 312.343 582.55 313.4 577.892 316.135C573.233 318.871 569.654 323.119 567.752 328.173L550.571 374.879Z" fill="#129093"/>
<path d="M606.12 467.942L440.577 551.898C433.059 555.711 426.818 561.634 422.62 568.94C418.422 576.246 416.448 584.618 416.941 593.029L429.41 805.599H454.81L489.08 578.163L617.965 487.724L606.12 467.942Z" fill="#303348"/>
<path d="M576.906 177.62C576.906 177.62 622.907 161.988 647.079 205.529C648.444 208.072 650.056 210.475 651.892 212.703C656.801 218.494 667.019 229.168 678.319 232.627C723.087 246.37 751.421 330.959 662.307 338.486C550.786 347.909 519.12 325.928 535.072 281.499C546.45 249.816 536.291 227.322 536.291 227.322L576.906 177.62Z" fill="#282C3C"/>
<path d="M613.633 291.171L589.828 301.753C582.891 304.829 577.008 309.868 572.905 316.249C568.802 322.63 566.66 330.072 566.743 337.656C567.11 368.891 574.201 446.443 600.606 476.12H681.088C693.565 421.177 686.373 336.722 686.373 336.722C686.761 326.738 683.375 316.973 676.887 309.371C670.4 301.769 661.286 296.885 651.36 295.692L613.633 291.171Z" fill="#007C86"/>
<path d="M615.847 316.78C611.819 317.248 607.768 316.11 604.573 313.613C601.378 311.115 599.297 307.46 598.781 303.439L592.235 252.317L622.852 248.762L629.357 299.531C629.615 301.552 629.469 303.604 628.928 305.568C628.387 307.532 627.461 309.37 626.205 310.974C624.949 312.578 623.386 313.917 621.608 314.914C619.83 315.91 617.872 316.545 615.847 316.78Z" fill="#EFC9A3"/>
<path d="M541.77 213.976L616.875 204.179L622.69 248.697C623.969 258.491 621.303 268.392 615.278 276.221C609.253 284.05 600.362 289.167 590.563 290.445L589.331 290.606C584.48 291.239 579.552 290.91 574.829 289.64C570.105 288.369 565.678 286.182 561.801 283.201C557.923 280.221 554.671 276.506 552.23 272.27C549.788 268.033 548.206 263.358 547.573 258.51L541.756 213.978L541.77 213.976Z" fill="#FFE0BC"/>
<path d="M625.13 231.624L618.712 244.909C618.712 244.909 610.177 252.299 607.761 233.731C605.712 218.004 594.289 220.734 594.289 220.734C594.289 220.734 555.15 250.324 532.157 230.02C514.013 213.986 543.337 184.666 576.892 177.634L620.899 196.852L625.13 231.624Z" fill="#282C3C"/>
<path d="M628.116 256.272C634.927 255.448 639.781 249.263 638.957 242.456C638.133 235.648 631.943 230.798 625.132 231.621C618.321 232.445 613.467 238.631 614.291 245.438C615.115 252.245 621.305 257.095 628.116 256.272Z" fill="#FFE0BC"/>
<path d="M626.893 251.699C628.12 251.551 628.994 250.437 628.845 249.211C628.697 247.985 627.582 247.112 626.356 247.26C625.129 247.408 624.255 248.522 624.404 249.748C624.552 250.974 625.666 251.847 626.893 251.699Z" fill="white"/>
<path d="M560.926 268.919L582.013 264.439C582.013 264.439 583.026 273.601 571.469 275.242C570.361 275.537 569.205 275.606 568.07 275.446C566.934 275.286 565.842 274.9 564.859 274.311C563.876 273.721 563.021 272.94 562.345 272.014C561.67 271.088 561.187 270.035 560.926 268.919V268.919Z" fill="white"/>
<path d="M681.088 476.12H600.606L471.854 553.873C464.516 558.304 459.043 565.253 456.457 573.422C453.87 581.592 454.347 590.422 457.799 598.265L556.631 822.746L585.208 819.388L532.088 602.773C576.668 600.89 659.451 594.16 681.069 570.068C717.696 529.281 681.088 476.12 681.088 476.12Z" fill="#3D415B"/>
<path d="M406.604 335.265L452.532 458.583H303.289L260.804 342.402C260.51 341.598 260.415 340.734 260.526 339.884C260.637 339.034 260.951 338.224 261.443 337.522C261.934 336.82 262.588 336.246 263.348 335.85C264.108 335.454 264.953 335.247 265.81 335.247H406.604V335.265Z" fill="#C2DFF1"/>
<path d="M405.72 335.265H412.802C414.662 335.266 416.476 335.838 418 336.903C419.524 337.968 420.684 339.475 421.324 341.221L464.249 457.552H451.239L405.72 335.265Z" fill="#A5C3D3"/>
<path d="M303.702 457.534H451.239V469.312H314.465C311.608 469.312 308.868 468.178 306.848 466.159C304.828 464.14 303.693 461.402 303.693 458.546V457.534H303.702Z" fill="#A5C3D3"/>
<path d="M452.532 470.494H544.634C546.215 470.494 547.731 469.867 548.848 468.75C549.966 467.633 550.594 466.118 550.594 464.539C550.594 462.959 549.966 461.444 548.848 460.327C547.731 459.21 546.215 458.583 544.634 458.583H452.532V470.494Z" fill="#A5C3D3"/>
<path d="M361.366 416.199C368.389 413.876 371.796 405.088 368.975 396.569C366.155 388.049 358.175 383.026 351.153 385.348C344.13 387.67 340.723 396.459 343.544 404.978C346.364 413.497 354.344 418.521 361.366 416.199Z" fill="#ECF2F5"/>
<path d="M667.895 362.189L633.304 448.963L632.543 450.878C631.563 453.321 629.871 455.414 627.686 456.885C625.501 458.355 622.924 459.135 620.289 459.124L522.008 458.478C520.172 458.475 518.406 457.777 517.064 456.526C515.723 455.274 514.905 453.561 514.776 451.731C514.647 449.901 515.216 448.09 516.369 446.663C517.522 445.236 519.173 444.298 520.99 444.038L618.213 429.653L605.199 439.8L628.366 349.33C629.023 346.66 630.202 344.146 631.837 341.935C633.471 339.723 635.527 337.857 637.887 336.444C640.247 335.032 642.864 334.1 645.586 333.704C648.309 333.308 651.082 333.455 653.748 334.137C656.413 334.818 658.916 336.021 661.113 337.675C663.311 339.33 665.158 341.403 666.549 343.775C667.94 346.147 668.847 348.771 669.217 351.495C669.587 354.219 669.414 356.99 668.706 359.647C668.485 360.509 668.214 361.358 667.895 362.189V362.189Z" fill="#FFE0BC"/>
<path d="M530.685 441.303L497.419 440.602C493.211 440.883 489.284 442.816 486.495 445.978C483.706 449.14 482.281 453.276 482.53 457.484H531.121L530.685 441.303Z" fill="#FCD8B6"/>
<path d="M613.345 372.914L667.074 386.272L675.889 337.523C676.45 334.416 676.38 331.227 675.683 328.147C674.987 325.067 673.677 322.159 671.833 319.594C669.989 317.03 667.648 314.863 664.949 313.22C662.251 311.578 659.249 310.495 656.123 310.036V310.036C650.744 309.246 645.257 310.339 640.592 313.129C635.927 315.92 632.371 320.236 630.526 325.346L613.345 372.914Z" fill="#129093"/>
<path d="M547.953 827.964L535.416 840.334L507.247 847.206C505.819 847.553 504.5 848.252 503.41 849.239C502.321 850.225 501.495 851.468 501.008 852.854L499.578 856.927C499.413 857.396 499.365 857.897 499.437 858.388C499.508 858.88 499.698 859.346 499.989 859.748C500.281 860.15 500.666 860.476 501.11 860.697C501.555 860.918 502.047 861.028 502.544 861.018L593.221 858.819C593.92 858.805 594.609 858.647 595.244 858.357C595.88 858.066 596.45 857.649 596.919 857.13C597.387 856.611 597.745 856.002 597.969 855.34C598.193 854.678 598.279 853.977 598.222 853.28L591.071 827.625L577.369 830.901C575.107 831.651 572.711 831.912 570.34 831.666C567.969 831.421 565.677 830.674 563.617 829.476L558.744 826.64C557.05 825.644 555.075 825.234 553.124 825.473C551.173 825.713 549.356 826.588 547.953 827.964V827.964Z" fill="#29323D"/>
<path d="M417.808 810.162L405.27 822.531L377.102 829.403C375.673 829.751 374.354 830.45 373.265 831.436C372.175 832.423 371.349 833.666 370.863 835.052L369.432 839.125C369.268 839.593 369.219 840.095 369.291 840.586C369.363 841.077 369.553 841.544 369.844 841.946C370.136 842.348 370.52 842.674 370.965 842.895C371.41 843.116 371.902 843.226 372.398 843.216L454.453 841.484C455.151 841.469 455.84 841.312 456.475 841.022C457.111 840.732 457.681 840.315 458.149 839.796C458.617 839.278 458.975 838.669 459.199 838.008C459.424 837.346 459.51 836.646 459.454 835.95L457.322 809.722L447.205 813.08C444.943 813.83 442.547 814.091 440.176 813.845C437.805 813.6 435.513 812.853 433.453 811.656L428.58 808.82C426.886 807.83 424.914 807.426 422.967 807.668C421.02 807.911 419.207 808.787 417.808 810.162Z" fill="#29323D"/>
<path d="M781.474 278.32L1011.85 278.32C1019.67 278.32 1026 271.99 1026 264.182V198.881C1026 191.073 1019.67 184.743 1011.85 184.743L781.474 184.743C773.661 184.743 767.327 191.073 767.327 198.881V264.182C767.327 271.99 773.661 278.32 781.474 278.32Z" fill="#C5E0E2"/>
<path d="M993.375 258.383L945.701 258.383C945.116 258.383 944.536 258.267 943.994 258.043C943.453 257.819 942.962 257.491 942.547 257.077C942.133 256.663 941.805 256.172 941.581 255.631C941.356 255.09 941.241 254.51 941.241 253.925V209.143C941.241 207.96 941.711 206.825 942.549 205.988C943.386 205.151 944.522 204.681 945.706 204.681H993.38C994.563 204.681 995.697 205.151 996.534 205.987C997.37 206.823 997.84 207.957 997.84 209.139V253.92C997.84 255.104 997.37 256.239 996.532 257.076C995.695 257.912 994.56 258.383 993.375 258.383V258.383Z" fill="white"/>
<path d="M799.333 215.924H922.41C922.916 215.924 923.416 215.824 923.883 215.631C924.351 215.437 924.775 215.154 925.133 214.796C925.49 214.439 925.774 214.015 925.967 213.548C926.161 213.081 926.26 212.581 926.26 212.075V212.075C926.26 211.055 925.855 210.076 925.133 209.354C924.411 208.632 923.431 208.227 922.41 208.227H799.333C798.312 208.227 797.332 208.632 796.61 209.354C795.888 210.076 795.482 211.055 795.482 212.075V212.075C795.482 212.581 795.582 213.081 795.775 213.548C795.969 214.015 796.253 214.439 796.61 214.796C796.968 215.154 797.392 215.437 797.859 215.631C798.327 215.824 798.827 215.924 799.333 215.924Z" fill="white"/>
<path d="M879.448 235.385H922.41C924.536 235.385 926.26 233.662 926.26 231.536V231.532C926.26 229.406 924.536 227.683 922.41 227.683H879.448C877.322 227.683 875.598 229.406 875.598 231.532V231.536C875.598 233.662 877.322 235.385 879.448 235.385Z" fill="white"/>
<path d="M799.333 235.385H850.688C852.815 235.385 854.539 233.662 854.539 231.536V231.532C854.539 229.406 852.815 227.683 850.688 227.683H799.333C797.206 227.683 795.482 229.406 795.482 231.532V231.536C795.482 233.662 797.206 235.385 799.333 235.385Z" fill="white"/>
<path d="M830.147 254.841H922.41C923.431 254.841 924.41 254.436 925.133 253.714C925.855 252.992 926.26 252.014 926.26 250.993C926.26 249.972 925.855 248.994 925.133 248.272C924.41 247.55 923.431 247.145 922.41 247.145H830.147C829.126 247.145 828.146 247.55 827.424 248.272C826.702 248.994 826.296 249.972 826.296 250.993C826.296 252.014 826.702 252.992 827.424 253.714C828.146 254.436 829.126 254.841 830.147 254.841V254.841Z" fill="white"/>
<path d="M228.317 433.107C228.317 433.107 266.291 433.24 258.402 394.166C258.402 394.18 218.562 398.111 228.317 433.107Z" fill="#33D18D"/>
<path d="M223.559 431.008C223.559 431.008 185.117 431.146 193.103 391.61C193.103 391.605 233.433 395.591 223.559 431.008Z" fill="#33D18D"/>
<path d="M225.324 431.146C225.324 431.146 197.329 402.953 230.366 378.1C230.343 378.1 256.871 410.888 225.324 431.146Z" fill="#33D18D"/>
<path d="M256.042 427.838H194.606L204.389 470.467H245.475L256.042 427.838Z" fill="#8B4200"/>
<path d="M378.115 478.246V778.895" stroke="#3D415B" stroke-width="2" stroke-miterlimit="10"/>
</g>
<defs>
<clipPath id="clip0">
<rect width="1026" height="861" fill="white"/>
</clipPath>
</defs>
</svg>
