<svg width="200" height="200" viewBox="0 0 200 200" fill="none" xmlns="http://www.w3.org/2000/svg">
<g clip-path="url(#clip0)">
<path d="M33.887 172.92H6.061V130.245C6.061 129.441 5.74172 128.67 5.17339 128.102C4.60506 127.534 3.83424 127.215 3.0305 127.215C2.22676 127.215 1.45594 127.534 0.887613 128.102C0.319284 128.67 0 129.441 0 130.245L0 196.968C0 197.772 0.319284 198.543 0.887613 199.111C1.45594 199.679 2.22676 199.999 3.0305 199.999C3.83424 199.999 4.60506 199.679 5.17339 199.111C5.74172 198.543 6.061 197.772 6.061 196.968V178.98H24.583V196.969C24.583 197.773 24.9023 198.544 25.4706 199.112C26.0389 199.68 26.8098 200 27.6135 200C28.4172 200 29.1881 199.68 29.7564 199.112C30.3247 198.544 30.644 197.773 30.644 196.969V178.98H33.887C34.6906 178.98 35.4613 178.661 36.0295 178.093C36.5978 177.524 36.917 176.754 36.917 175.95C36.917 175.146 36.5978 174.376 36.0295 173.807C35.4613 173.239 34.6906 172.92 33.887 172.92Z" fill="#536DFE"/>
<path d="M196.97 127.213C196.166 127.214 195.396 127.534 194.827 128.102C194.259 128.67 193.94 129.441 193.939 130.245V172.92H166.115C165.713 172.913 165.313 172.986 164.939 173.135C164.565 173.284 164.224 173.506 163.937 173.788C163.65 174.07 163.422 174.406 163.266 174.777C163.11 175.148 163.03 175.547 163.03 175.949C163.03 176.352 163.11 176.751 163.266 177.122C163.422 177.493 163.65 177.829 163.937 178.111C164.224 178.393 164.565 178.615 164.939 178.764C165.313 178.913 165.713 178.986 166.115 178.979H169.358V196.968C169.358 197.772 169.677 198.543 170.246 199.111C170.814 199.679 171.585 199.999 172.389 199.999C173.192 199.999 173.963 199.679 174.531 199.111C175.1 198.543 175.419 197.772 175.419 196.968V178.98H193.939V196.969C193.939 197.773 194.258 198.544 194.827 199.112C195.395 199.68 196.166 199.999 196.97 199.999C197.773 199.999 198.544 199.68 199.112 199.112C199.681 198.544 200 197.773 200 196.969V130.245C200 129.441 199.681 128.67 199.113 128.102C198.544 127.533 197.774 127.214 196.97 127.213V127.213Z" fill="#536DFE"/>
<path d="M151.515 134.285C151.515 133.481 151.196 132.711 150.628 132.142C150.06 131.574 149.29 131.254 148.486 131.253H51.515C50.711 131.253 49.9399 131.572 49.3714 132.141C48.8029 132.709 48.4835 133.48 48.4835 134.285C48.4835 135.089 48.8029 135.86 49.3714 136.428C49.9399 136.997 50.711 137.316 51.515 137.316H96.97V196.968C96.97 197.772 97.2893 198.543 97.8576 199.111C98.426 199.679 99.1968 199.999 100.001 199.999C100.804 199.999 101.575 199.679 102.143 199.111C102.712 198.543 103.031 197.772 103.031 196.968V137.317H148.486C149.29 137.316 150.06 136.996 150.628 136.428C151.196 135.859 151.515 135.089 151.515 134.285V134.285Z" fill="#536DFE"/>
<path d="M22.365 87.15C23.5957 87.4507 24.8581 87.6024 26.125 87.602C30.0401 87.5872 33.8022 86.08 36.6445 83.3875C39.4868 80.6951 41.1954 77.0201 41.422 73.1116C41.6487 69.2031 40.3764 65.3552 37.8644 62.3523C35.3523 59.3493 31.7897 57.4173 27.9026 56.95C24.0155 56.4828 20.0965 57.5154 16.9444 59.8374C13.7922 62.1595 11.6442 65.5961 10.9381 69.447C10.232 73.2979 11.0209 77.2731 13.1441 80.5625C15.2674 83.8518 18.565 86.2077 22.365 87.15V87.15ZM19.855 65.15C21.5734 63.5902 23.8123 62.7282 26.133 62.733C26.9308 62.7341 27.7257 62.8298 28.501 63.018C30.5376 63.538 32.342 64.7235 33.6279 66.3861C34.9137 68.0488 35.6073 70.0933 35.5985 72.1952C35.5898 74.297 34.8791 76.3357 33.5794 77.9876C32.2796 79.6394 30.4654 80.8097 28.4246 81.3127C26.3838 81.8157 24.2334 81.6226 22.3149 80.7639C20.3964 79.9053 18.8198 78.4304 17.8352 76.5734C16.8507 74.7163 16.5147 72.5836 16.8806 70.5139C17.2466 68.4441 18.2934 66.5559 19.855 65.149V65.15Z" fill="#536DFE"/>
<path d="M69.153 153.174C68.3569 150.761 66.8269 148.658 64.7769 147.157C62.727 145.657 60.2594 144.834 57.719 144.804L44.249 144.641C43.0484 144.633 41.8994 144.152 41.0517 143.301C40.204 142.451 39.7262 141.301 39.722 140.1L39.322 113.806L61.194 120.8C63.3301 121.485 65.6264 121.489 67.765 120.812L88.448 114.277C89.6919 113.89 90.8437 113.253 91.8328 112.404C92.8218 111.556 93.6273 110.515 94.1999 109.345C94.7725 108.175 95.1001 106.9 95.1627 105.599C95.2253 104.297 95.0216 102.997 94.564 101.777V101.777C93.702 99.5075 92.0122 97.6488 89.8348 96.5753C87.6574 95.5017 85.1541 95.2929 82.829 95.991L63.937 101.891C63.1582 102.135 62.3177 102.094 61.567 101.773L39.848 92.517C37.6038 91.5612 35.1565 91.1807 32.728 91.41L20.471 92.554C17.5736 92.8303 14.8901 94.1992 12.9655 96.3825C11.041 98.5658 10.0196 101.4 10.109 104.309L11.881 151.236C12.0333 155.684 13.9315 159.894 17.1647 162.953C20.3979 166.012 24.7059 167.675 29.156 167.581L47.336 167.141C48.1143 167.097 48.8838 167.325 49.5118 167.787C50.1397 168.249 50.5868 168.916 50.776 169.672L57.168 192.21C57.8105 194.45 59.163 196.42 61.022 197.825C62.881 199.23 65.1459 199.993 67.476 200H69.5C71.2269 200 72.9293 199.591 74.4672 198.805C76.0052 198.02 77.3349 196.881 78.3471 195.482C79.3593 194.082 80.0251 192.463 80.2898 190.757C80.5546 189.05 80.4107 187.305 79.87 185.665L69.153 153.174ZM73.438 191.931C72.9912 192.556 72.4008 193.065 71.7164 193.415C71.032 193.765 70.2736 193.945 69.505 193.941H67.476C66.4644 193.938 65.4811 193.607 64.674 192.997C63.8668 192.387 63.2793 191.532 63 190.56L56.61 168.025C56.0444 166.025 54.8411 164.264 53.1829 163.01C51.5248 161.757 49.5027 161.079 47.424 161.08H47.192L29.006 161.523C27.5876 161.571 26.1738 161.337 24.8468 160.834C23.5198 160.33 22.306 159.568 21.2762 158.592C20.2463 157.615 19.4208 156.444 18.8477 155.146C18.2746 153.847 17.9654 152.448 17.938 151.029L16.166 104.1C16.1259 102.734 16.6072 101.404 17.512 100.38C18.4169 99.3564 19.6776 98.7152 21.038 98.587L33.29 97.44C34.7166 97.31 36.1533 97.5336 37.473 98.091L59.189 107.336C61.266 108.22 63.5898 108.335 65.744 107.661L84.6 101.778C85.4509 101.525 86.3658 101.604 87.1614 101.997C87.9571 102.391 88.5745 103.07 88.89 103.9C89.0575 104.348 89.1318 104.826 89.1082 105.304C89.0846 105.782 88.9637 106.251 88.7529 106.68C88.5421 107.11 88.2458 107.492 87.8821 107.803C87.5185 108.114 87.0951 108.348 86.638 108.49L65.938 115.029C64.9946 115.329 63.9814 115.329 63.038 115.029L37.15 106.75C36.692 106.603 36.2056 106.567 35.7311 106.646C35.2565 106.724 34.8074 106.914 34.421 107.201C34.0345 107.487 33.7217 107.861 33.5086 108.292C33.2954 108.723 33.1879 109.199 33.195 109.68L33.661 140.18C33.7088 142.954 34.8319 145.602 36.7937 147.564C38.7554 149.527 41.4025 150.651 44.177 150.7L57.647 150.863C58.925 150.879 60.1662 151.293 61.1976 152.048C62.229 152.803 62.9993 153.861 63.401 155.074L74.117 187.565C74.3607 188.294 74.4262 189.071 74.3081 189.831C74.19 190.59 73.8916 191.31 73.438 191.931V191.931Z" fill="#536DFE"/>
<path d="M173.877 87.6C175.144 87.6005 176.406 87.4487 177.637 87.148C180.356 86.4607 182.837 85.0478 184.815 83.0601C186.793 81.0724 188.194 78.5846 188.869 75.8626C189.543 73.1405 189.465 70.2864 188.643 67.6052C187.821 64.924 186.287 62.5164 184.203 60.6396C182.119 58.7628 179.565 57.4873 176.813 56.9494C174.06 56.4115 171.214 56.6314 168.577 57.5857C165.94 58.5399 163.611 60.1925 161.841 62.3671C160.07 64.5416 158.923 67.1564 158.523 69.932C158.206 72.1304 158.367 74.3712 158.994 76.5019C159.621 78.6326 160.7 80.6032 162.157 82.2796C163.614 83.9561 165.415 85.2991 167.437 86.2171C169.459 87.1352 171.656 87.6069 173.877 87.6ZM164.529 70.754C164.803 68.9228 165.61 67.2128 166.849 65.8368C168.088 64.4607 169.705 63.4794 171.497 63.015C172.274 62.8265 173.071 62.7308 173.87 62.73C175.222 62.7328 176.558 63.0266 177.786 63.5915C179.015 64.1563 180.107 64.979 180.989 66.0036C181.872 67.0281 182.523 68.2306 182.899 69.5293C183.276 70.828 183.368 72.1925 183.17 73.53C182.802 76.0021 181.467 78.2268 179.459 79.7147C177.451 81.2026 174.934 81.8318 172.462 81.464C169.99 81.0961 167.765 79.7613 166.277 77.7532C164.789 75.745 164.16 73.2281 164.528 70.756L164.529 70.754Z" fill="#536DFE"/>
<path d="M188.116 151.257L189.896 104.289C189.978 101.383 188.953 98.5534 187.027 96.3746C185.102 94.1958 182.42 92.8301 179.526 92.554L167.283 91.41C164.852 91.183 162.403 91.5634 160.156 92.517L141.964 100.236C141.433 100.464 140.854 100.556 140.279 100.504C139.704 100.451 139.151 100.256 138.67 99.936L125.494 90.93C123.394 89.527 120.824 89.0114 118.344 89.4956C115.865 89.9799 113.678 91.4247 112.26 93.515C110.842 95.6053 110.308 98.1715 110.774 100.654C111.241 103.137 112.67 105.334 114.75 106.767L134.65 120.537C135.977 121.45 137.513 122.012 139.115 122.171C140.718 122.33 142.335 122.082 143.815 121.448L160.671 114.254L160.271 140.112C160.25 141.306 159.767 142.444 158.923 143.289C158.08 144.134 156.942 144.618 155.748 144.641L142.273 144.804C139.733 144.834 137.265 145.658 135.216 147.159C133.167 148.661 131.638 150.765 130.843 153.178L120.125 185.665C119.584 187.305 119.44 189.051 119.705 190.758C119.97 192.465 120.637 194.084 121.649 195.484C122.662 196.883 123.992 198.022 125.531 198.807C127.07 199.592 128.773 200.001 130.5 200H132.524C134.854 199.994 137.119 199.231 138.978 197.827C140.837 196.422 142.189 194.452 142.831 192.212L149.221 169.678C149.422 168.928 149.871 168.269 150.496 167.808C151.121 167.348 151.883 167.113 152.659 167.143L170.847 167.583C175.286 167.653 179.577 165.984 182.804 162.934C186.03 159.884 187.936 155.693 188.116 151.257V151.257ZM143.388 168.022L137 190.56C136.721 191.532 136.134 192.388 135.328 192.998C134.521 193.608 133.537 193.939 132.526 193.942H130.5C129.732 193.942 128.975 193.759 128.291 193.41C127.607 193.061 127.016 192.554 126.566 191.932C126.116 191.309 125.82 190.589 125.702 189.83C125.584 189.071 125.648 188.295 125.888 187.566L136.6 155.078C137 153.864 137.77 152.806 138.8 152.05C139.831 151.295 141.072 150.88 142.35 150.863L155.825 150.7C158.596 150.651 161.241 149.529 163.201 147.569C165.162 145.609 166.285 142.965 166.335 140.194L166.805 109.684C166.814 109.179 166.696 108.679 166.463 108.231C166.229 107.783 165.887 107.401 165.467 107.119C165.048 106.837 164.565 106.664 164.062 106.617C163.559 106.57 163.052 106.649 162.587 106.848L141.442 115.873C140.9 116.104 140.309 116.196 139.723 116.139C139.137 116.082 138.574 115.879 138.087 115.548L118.187 101.778C117.794 101.508 117.46 101.16 117.205 100.756C116.951 100.352 116.782 99.9004 116.708 99.4288C116.634 98.9573 116.657 98.4756 116.776 98.0133C116.895 97.551 117.106 97.1177 117.398 96.74C117.938 96.0406 118.722 95.5708 119.593 95.4245C120.465 95.2782 121.359 95.4662 122.098 95.951L135.273 104.96C136.592 105.845 138.111 106.387 139.692 106.536C141.273 106.686 142.867 106.438 144.328 105.815L162.524 98.1C163.849 97.5412 165.292 97.3176 166.724 97.449L178.967 98.592C180.324 98.7204 181.582 99.3587 182.487 100.378C183.392 101.397 183.877 102.722 183.844 104.085L182.064 151.053C182.034 152.47 181.724 153.867 181.15 155.162C180.576 156.458 179.75 157.627 178.721 158.601C177.692 159.575 176.479 160.335 175.154 160.837C173.828 161.338 172.416 161.572 171 161.523L152.8 161.08C150.682 161.022 148.605 161.673 146.899 162.931C145.194 164.189 143.958 165.981 143.388 168.022V168.022Z" fill="#536DFE"/>
<path d="M57.731 73.34C58.2515 73.5858 58.8315 73.6777 59.4025 73.6049C59.9735 73.532 60.5118 73.2976 60.954 72.929L83.547 54.236H140.981C141.785 54.2355 142.555 53.9158 143.124 53.3472C143.692 52.7787 144.011 52.0078 144.011 51.204V3.031C144.011 2.22738 143.691 1.45674 143.123 0.888405C142.555 0.320069 141.785 0.000530047 140.981 0L59.021 0C58.2173 0.000529802 57.4466 0.320037 56.8783 0.888344C56.31 1.45665 55.9905 2.22729 55.99 3.031V70.6C55.9911 71.1747 56.1553 71.7372 56.4635 72.2222C56.7717 72.7073 57.2112 73.0949 57.731 73.34V73.34ZM62.05 6.063H137.95V48.173H82.45C81.7439 48.1749 81.0606 48.4224 80.517 48.873L62.05 64.156V6.063Z" fill="#536DFE"/>
</g>
<defs>
<clipPath id="clip0">
<rect width="200" height="200" fill="white"/>
</clipPath>
</defs>
</svg>
