<svg width="200" height="200" viewBox="0 0 200 200" fill="none" xmlns="http://www.w3.org/2000/svg">
<g clip-path="url(#clip0)">
<path d="M40.033 34.572C43.4518 34.5724 46.794 33.559 49.6368 31.66C52.4797 29.7609 54.6956 27.0615 56.0043 23.9032C57.3131 20.7448 57.6558 17.2692 56.9893 13.916C56.3228 10.5628 54.6769 7.48254 52.2598 5.06473C49.8427 2.64692 46.7629 1.00015 43.4099 0.332666C40.0569 -0.334819 36.5812 0.00695634 33.4225 1.31477C30.2637 2.62259 27.5637 4.83771 25.6638 7.68003C23.764 10.5223 22.7496 13.8642 22.749 17.283C22.7535 21.8661 24.5758 26.2602 27.816 29.5014C31.0563 32.7426 35.4499 34.5662 40.033 34.572V34.572ZM40.033 6.04501C42.257 6.04461 44.4311 6.70379 46.2803 7.93917C48.1296 9.17455 49.571 10.9306 50.4221 12.9853C51.2732 15.0399 51.4958 17.3008 51.0618 19.482C50.6279 21.6632 49.5567 23.6667 47.9839 25.2391C46.4112 26.8114 44.4074 27.882 42.2261 28.3154C40.0448 28.7489 37.7839 28.5256 35.7295 27.6739C33.6751 26.8223 31.9194 25.3805 30.6845 23.5309C29.4496 21.6813 28.791 19.507 28.792 17.283C28.796 14.3032 29.9817 11.4466 32.089 9.33987C34.1963 7.23311 37.0532 6.04818 40.033 6.04501Z" fill="#536DFE"/>
<path d="M40.035 55.823C39.2337 55.8238 38.4654 56.1426 37.899 56.7094C37.3326 57.2762 37.0143 58.0447 37.014 58.846V63.046C37.0067 63.4473 37.0794 63.846 37.2279 64.2188C37.3765 64.5917 37.5978 64.9312 37.879 65.2176C38.1602 65.504 38.4956 65.7314 38.8657 65.8867C39.2358 66.042 39.6332 66.122 40.0345 66.122C40.4358 66.122 40.8332 66.042 41.2033 65.8867C41.5734 65.7314 41.9088 65.504 42.19 65.2176C42.4712 64.9312 42.6925 64.5917 42.8411 64.2188C42.9896 63.846 43.0623 63.4473 43.055 63.046V58.846C43.055 58.0448 42.7369 57.2763 42.1706 56.7095C41.6044 56.1426 40.8362 55.8238 40.035 55.823Z" fill="#536DFE"/>
<path d="M40.035 72.633C39.6379 72.6334 39.2447 72.712 38.878 72.8643C38.5113 73.0167 38.1781 73.2397 37.8976 73.5208C37.6171 73.8019 37.3946 74.1355 37.243 74.5025C37.0914 74.8696 37.0136 75.2629 37.014 75.66V79.86C37.0284 80.6516 37.353 81.4058 37.9179 81.9605C38.4827 82.5152 39.2428 82.826 40.0345 82.826C40.8262 82.826 41.5863 82.5152 42.1512 81.9605C42.716 81.4058 43.0406 80.6516 43.055 79.86V75.66C43.0558 74.8582 42.7381 74.0888 42.1718 73.5212C41.6054 72.9535 40.8368 72.6341 40.035 72.633V72.633Z" fill="#536DFE"/>
<path d="M40.035 89.446C39.6379 89.4464 39.2447 89.525 38.878 89.6773C38.5113 89.8297 38.1781 90.0527 37.8976 90.3338C37.6171 90.6149 37.3946 90.9485 37.243 91.3155C37.0914 91.6826 37.0136 92.0759 37.014 92.473V94.486C37.0284 95.2776 37.353 96.0318 37.9179 96.5865C38.4827 97.1412 39.2428 97.452 40.0345 97.452C40.8262 97.452 41.5863 97.1412 42.1512 96.5865C42.716 96.0318 43.0406 95.2776 43.055 94.486V92.473C43.0558 91.6712 42.7381 90.9018 42.1718 90.3342C41.6054 89.7665 40.8368 89.4471 40.035 89.446V89.446Z" fill="#536DFE"/>
<path d="M105.248 22.412C105.252 20.9442 104.965 19.4901 104.404 18.1341C103.842 16.778 103.017 15.5468 101.976 14.512C99.8487 12.4826 97.0216 11.3504 94.0815 11.3504C91.1414 11.3504 88.3143 12.4826 86.187 14.512L63.559 37.148C62.2774 38.4367 60.753 39.4585 59.0739 40.1542C57.3948 40.8498 55.5945 41.2057 53.777 41.201H19.308C14.1887 41.2066 9.28075 43.2427 5.66097 46.8627C2.04119 50.4826 0.00529397 55.3907 0 60.51L0 110.877C0.00344058 113.837 1.18096 116.675 3.27425 118.769C5.36753 120.862 8.20565 122.04 11.166 122.043C12.9622 122.035 14.7294 121.589 16.314 120.743V186.154C16.3427 188.901 17.2149 191.573 18.8127 193.808C20.4105 196.042 22.6565 197.732 25.2465 198.648C27.8366 199.564 30.6456 199.661 33.2929 198.927C35.9403 198.193 38.2981 196.664 40.047 194.545C41.7959 196.664 44.1537 198.193 46.8011 198.927C49.4484 199.661 52.2574 199.564 54.8475 198.648C57.4375 197.732 59.6835 196.042 61.2813 193.808C62.8791 191.573 63.7513 188.901 63.78 186.154V73.258C63.7765 71.8144 64.0584 70.3844 64.6097 69.0502C65.1609 67.7161 65.9706 66.5041 66.992 65.484L101.976 30.307C103.016 29.2727 103.841 28.0424 104.403 26.6872C104.964 25.3321 105.252 23.8789 105.248 22.412V22.412ZM57.737 186.156C57.7145 188.086 56.9318 189.93 55.5588 191.287C54.1857 192.644 52.333 193.405 50.4025 193.405C48.472 193.405 46.6193 192.644 45.2462 191.287C43.8732 189.93 43.0905 188.086 43.068 186.156V127.662C43.0753 127.261 43.0025 126.862 42.854 126.489C42.7054 126.116 42.484 125.776 42.2027 125.49C41.9214 125.203 41.5859 124.976 41.2157 124.82C40.8454 124.665 40.448 124.585 40.0465 124.585C39.645 124.585 39.2476 124.665 38.8773 124.82C38.5071 124.976 38.1716 125.203 37.8903 125.49C37.609 125.776 37.3876 126.116 37.239 126.489C37.0905 126.862 37.0177 127.261 37.025 127.662V186.156C36.9862 188.076 36.1964 189.903 34.8251 191.247C33.4539 192.591 31.6104 193.344 29.6905 193.344C27.7706 193.344 25.9271 192.591 24.5559 191.247C23.1846 189.903 22.3948 188.076 22.356 186.156V113.011H57.737V186.155V186.156ZM97.7 26.039L62.707 61.223C61.1261 62.8029 59.8731 64.6799 59.0201 66.7458C58.1672 68.8117 57.7311 71.0259 57.737 73.261V106.973H22.353L22.331 63.334C22.3383 62.9326 22.2655 62.5337 22.117 62.1608C21.9684 61.7878 21.747 61.4481 21.4657 61.1617C21.1844 60.8752 20.8489 60.6477 20.4787 60.4924C20.1084 60.337 19.711 60.257 19.3095 60.257C18.908 60.257 18.5106 60.337 18.1403 60.4924C17.7701 60.6477 17.4346 60.8752 17.1533 61.1617C16.872 61.4481 16.6506 61.7878 16.502 62.1608C16.3535 62.5337 16.2807 62.9326 16.288 63.334V110.877C16.288 112.236 15.7483 113.538 14.7877 114.499C13.827 115.46 12.5241 115.999 11.1655 115.999C9.80693 115.999 8.504 115.46 7.54335 114.499C6.58269 113.538 6.043 112.236 6.043 110.877V60.51C6.04671 56.9929 7.44539 53.6208 9.9322 51.1336C12.419 48.6464 15.7909 47.2472 19.308 47.243H37.217C37.4176 47.8309 37.7971 48.3414 38.3024 48.7028C38.8076 49.0643 39.4133 49.2586 40.0345 49.2586C40.6557 49.2586 41.2614 49.0643 41.7666 48.7028C42.2719 48.3414 42.6514 47.8309 42.852 47.243H53.777C56.3884 47.2508 58.9754 46.7404 61.3882 45.7414C63.8009 44.7424 65.9915 43.2746 67.833 41.423L90.459 18.793C91.4344 17.8607 92.7317 17.3404 94.081 17.3404C95.4303 17.3404 96.7276 17.8607 97.703 18.793C98.1795 19.2685 98.5575 19.8333 98.8153 20.4551C99.0731 21.0769 99.2057 21.7435 99.2054 22.4166C99.2051 23.0898 99.072 23.7562 98.8137 24.3778C98.5554 24.9994 98.1769 25.5639 97.7 26.039V26.039Z" fill="#536DFE"/>
<path d="M196.4 7.16653e-07H123.027C122.505 -0.000359056 121.991 0.134746 121.537 0.392117C121.083 0.649488 120.703 1.02032 120.435 1.46839C120.166 1.91646 120.019 2.42645 120.007 2.94852C119.995 3.47059 120.118 3.9869 120.365 4.447L131.687 25.547L120.365 46.637C120.118 47.0976 119.994 47.6144 120.006 48.1369C120.019 48.6594 120.166 49.1699 120.434 49.6186C120.702 50.0673 121.082 50.4389 121.536 50.6971C121.991 50.9553 122.504 51.0914 123.027 51.092H193.378V87.28L163.494 127.106L150.807 110.195C150.513 109.839 150.144 109.553 149.726 109.356C149.308 109.159 148.852 109.057 148.39 109.057C147.928 109.057 147.472 109.159 147.054 109.356C146.636 109.553 146.267 109.839 145.973 110.195L115.144 151.279L102.457 134.368C102.163 134.012 101.794 133.726 101.376 133.529C100.958 133.332 100.502 133.23 100.04 133.23C99.5782 133.23 99.1221 133.332 98.7043 133.529C98.2865 133.726 97.9172 134.012 97.623 134.368L72.128 168.344C71.8812 168.661 71.7001 169.024 71.5951 169.411C71.4901 169.799 71.4635 170.204 71.5166 170.602C71.5698 171 71.7018 171.383 71.9048 171.73C72.1079 172.076 72.3779 172.379 72.6992 172.62C73.0205 172.861 73.3866 173.035 73.7761 173.133C74.1656 173.231 74.5707 173.251 74.9677 173.19C75.3648 173.13 75.7458 172.991 76.0885 172.781C76.4313 172.572 76.7289 172.297 76.964 171.971L100.038 141.217L139.177 193.377H74.546C73.7539 193.391 72.9991 193.716 72.444 194.281C71.889 194.847 71.578 195.607 71.578 196.4C71.578 197.192 71.889 197.952 72.444 198.518C72.9991 199.083 73.7539 199.408 74.546 199.422H196.4C197.201 199.421 197.97 199.103 198.536 198.536C199.103 197.969 199.421 197.2 199.421 196.399V3.023C199.421 2.2216 199.103 1.45299 198.536 0.886124C197.97 0.319259 197.201 0.00053092 196.4 7.16653e-07ZM193.377 193.378H146.733L118.923 156.315L148.389 117.045L193.378 177.003V193.378H193.377ZM193.377 166.933L167.27 132.133L193.377 97.346V166.929V166.933ZM193.377 45.044H128.077L137.777 26.973C138.013 26.5339 138.136 26.0433 138.136 25.545C138.136 25.0467 138.013 24.5561 137.777 24.117L128.077 6.046H193.377V45.046V45.044Z" fill="#536DFE"/>
</g>
<defs>
<clipPath id="clip0">
<rect width="199.421" height="199.423" fill="white"/>
</clipPath>
</defs>
</svg>
