<svg width="200" height="200" viewBox="0 0 200 200" fill="none" xmlns="http://www.w3.org/2000/svg">
<g clip-path="url(#clip0)">
<path d="M195.569 147.752C193.331 145.875 190.669 145.725 187.159 146.621C187.623 144.83 187.508 142.938 186.83 141.216C186.153 139.495 184.947 138.032 183.387 137.038C181.408 135.521 178.91 135.391 175.694 136.138V121.283C175.705 114.901 173.456 108.722 169.346 103.839C165.236 98.9574 159.53 95.6881 153.24 94.611L133.223 91.156C130.736 90.7256 128.427 89.5833 126.576 87.8673C124.724 86.1514 123.41 83.9355 122.793 81.488L121.252 75.388C131.236 67.358 137.826 53.688 137.826 38.217C137.826 15.357 122.849 0 100.561 0C78.273 0 63.292 15.357 63.292 38.218C63.292 53.685 69.87 67.335 79.842 75.373L78.301 81.488C77.682 83.9354 76.3671 86.151 74.5153 87.8667C72.6636 89.5825 70.3544 90.725 67.867 91.156L47.85 94.611C41.56 95.6888 35.8545 98.9583 31.7444 103.84C27.6344 108.722 25.3851 114.901 25.395 121.283V129.625H3.022C2.22146 129.625 1.45371 129.943 0.887181 130.509C0.320647 131.074 0.00158885 131.841 0 132.642V186.967C0.000795262 187.768 0.319461 188.535 0.885951 189.101C1.45244 189.667 2.22039 189.984 3.021 189.984H27.93C48.3297 196.113 69.5195 199.211 90.82 199.178C121.888 199.178 159.506 192.255 191.956 166.528C192.678 166.028 199.037 161.475 199.321 155.494C199.414 153.478 198.842 150.502 195.569 147.752ZM25.395 183.946H6.043V135.663H25.395V183.946V183.946ZM179.713 141.831C181.343 143.08 181.384 144.066 181.396 144.39C181.452 145.854 180.151 147.971 178.018 149.982C177.349 150.261 176.708 150.533 175.994 150.833C164.428 155.957 152.453 160.101 140.194 163.222C140.514 162.288 140.705 161.315 140.762 160.33C140.854 158.775 140.782 157.214 140.547 155.674C148.937 153.175 157.155 150.13 165.147 146.558C170.682 144.192 178.261 140.931 179.713 141.832V141.831ZM134.873 97.571L152.21 100.571C157.096 101.407 161.529 103.946 164.722 107.737C167.916 111.529 169.663 116.329 169.656 121.286V138.136C167.588 138.947 165.305 139.929 162.774 141.015C154.927 144.523 146.856 147.51 138.616 149.957C138.111 149.118 137.509 148.341 136.824 147.641C134.052 145.052 130.38 143.647 126.588 143.723C118.912 143.977 111.228 143.739 103.582 143.01V107.957L116.162 118.996C116.715 119.478 117.423 119.744 118.157 119.746C118.283 119.746 118.409 119.738 118.534 119.721C118.958 119.667 119.366 119.523 119.73 119.299C120.094 119.075 120.407 118.775 120.646 118.421L134.873 97.571ZM100.561 97.652L83.103 85.969C83.54 85.0007 83.8943 83.9971 84.162 82.969L85.184 78.918C89.8734 81.5612 95.1649 82.951 100.548 82.9531C105.931 82.9552 111.224 81.5696 115.915 78.93L116.933 82.969C117.201 83.9963 117.554 84.9997 117.987 85.969L100.561 97.652ZM121.288 91.033C123.296 93.2566 125.796 94.9801 128.588 96.066L117.578 112.202L105.505 101.609L121.288 91.033ZM69.33 38.218C69.282 33.7309 70.0205 29.2702 71.512 25.038C75.985 27.463 84.935 31.166 97.884 31.166C105.763 31.1018 113.589 29.8677 121.105 27.504C121.871 27.2701 122.512 26.7415 122.888 26.0346C123.265 25.3277 123.344 24.5003 123.111 23.7345C122.877 22.9687 122.348 22.3272 121.641 21.9511C120.934 21.575 120.107 21.4951 119.341 21.729C95.13 29.105 79.63 22.67 74.13 19.595C79.374 11.038 88.64 6.042 100.563 6.042C119.53 6.042 131.789 18.671 131.789 38.217C131.789 59.548 117.777 76.905 100.563 76.905C83.349 76.905 69.33 59.549 69.33 38.218ZM79.806 91.034L95.606 101.61L83.506 112.203L72.502 96.067C75.2958 94.9817 77.797 93.2582 79.806 91.034V91.034ZM31.437 121.283C31.4289 116.326 33.1761 111.526 36.3689 107.734C39.5618 103.943 43.994 101.404 48.88 100.568L66.217 97.568L80.443 118.42C80.6836 118.773 80.9962 119.072 81.3604 119.296C81.7246 119.52 82.132 119.665 82.556 119.72C82.6823 119.737 82.8096 119.745 82.937 119.745C83.6693 119.743 84.3762 119.476 84.928 118.995L97.54 107.945V141.986C94.3923 141.244 91.3924 139.976 88.667 138.235C81.947 134.293 74.25 129.848 31.438 129.641V121.283H31.437ZM188.363 161.683C126.604 210.639 45.246 188.951 31.437 184.766V135.676C72.676 135.862 79.537 139.889 85.604 143.45C91.833 147.1 97.231 150.243 126.814 149.76C128.929 149.722 130.979 150.49 132.548 151.909C134.223 153.596 134.961 156.309 134.734 159.971C134.678 160.863 134.511 163.556 129.198 165.689C129.149 165.705 129.024 165.762 128.998 165.77C123.345 167.97 110.887 169.85 83.651 166.33C83.2561 166.276 82.8543 166.3 82.4688 166.402C82.0833 166.504 81.7218 166.681 81.4052 166.923C81.0885 167.165 80.8229 167.467 80.6236 167.813C80.4244 168.158 80.2956 168.539 80.2445 168.935C80.1934 169.33 80.2211 169.732 80.326 170.116C80.4309 170.501 80.6109 170.861 80.8556 171.176C81.1003 171.49 81.405 171.754 81.7519 171.95C82.0988 172.146 82.4812 172.272 82.877 172.32C91.8176 173.559 100.828 174.232 109.853 174.335C118.853 174.335 125.858 173.389 130.868 171.496H130.905C147.231 168.234 163.144 163.17 178.352 156.396C184.541 153.764 190.384 151.302 191.682 152.381C193.174 153.634 193.308 154.591 193.282 155.204C193.173 157.761 189.718 160.726 188.363 161.678V161.683Z" fill="#536DFE"/>
<path d="M15.72 148.613C17.3873 148.613 18.739 147.261 18.739 145.594C18.739 143.927 17.3873 142.575 15.72 142.575C14.0526 142.575 12.701 143.927 12.701 145.594C12.701 147.261 14.0526 148.613 15.72 148.613Z" fill="#536DFE"/>
</g>
<defs>
<clipPath id="clip0">
<rect width="199.33" height="199.178" fill="white"/>
</clipPath>
</defs>
</svg>
