<svg width="200" height="200" viewBox="0 0 200 200" fill="none" xmlns="http://www.w3.org/2000/svg">
<g clip-path="url(#clip0)">
<path d="M200 0H0V200H200V0Z" fill="#536DFE"/>
<path d="M100.22 131.766C129.01 131.766 152.349 108.427 152.349 79.637C152.349 50.8469 129.01 27.508 100.22 27.508C71.43 27.508 48.091 50.8469 48.091 79.637C48.091 108.427 71.43 131.766 100.22 131.766Z" fill="#482B1B"/>
<path d="M117.661 191.27L100 199L82.78 191.27V153.023H117.661V191.27Z" fill="#EAC8AD"/>
<path d="M100.22 47.022C83.285 47.022 56.502 56.649 56.502 101.764C56.502 127.812 66.655 140.093 70.355 144.814C73.761 149.156 91.239 163.196 100.22 163.196V47.022V47.022Z" fill="#F2D7BC"/>
<path d="M48.077 112.521C47.331 105.312 50.766 98.921 55.747 98.232C60.728 97.543 65.376 102.838 66.123 110.047C66.87 117.256 63.435 123.647 58.452 124.333C53.469 125.019 48.824 119.727 48.077 112.521Z" fill="#F2D7BC"/>
<path d="M100.082 47.022C117.017 47.022 143.8 56.649 143.8 101.764C143.8 127.812 133.648 140.093 129.947 144.814C126.542 149.156 109.063 163.196 100.082 163.196V47.022V47.022Z" fill="#EAC0A7"/>
<path d="M152.364 112.521C153.111 105.312 149.675 98.921 144.694 98.232C139.713 97.543 135.065 102.838 134.318 110.047C133.571 117.256 137.006 123.647 141.989 124.333C146.972 125.019 151.617 119.727 152.364 112.521Z" fill="#EAC0A7"/>
<path d="M100 200V193.17C100 193.17 86.987 189.944 84.12 179.4C83.2959 176.424 82.8458 173.356 82.78 170.269C82.78 170.269 54.327 179.879 47.98 189.805C44.653 193.428 41.241 200 41.241 200H100Z" fill="#EAC8AD"/>
<path d="M100 200V193.17C100 193.17 113.012 189.945 115.881 179.405C116.704 176.429 117.154 173.361 117.219 170.274C117.219 170.274 145.672 179.884 152.019 189.81C156.119 195.519 158.754 200.001 158.754 200.001H100V200Z" fill="#EAC8AD"/>
<path d="M100 200V193.17C100 193.17 86.987 189.944 84.12 179.4C83.2959 176.424 82.8458 173.356 82.78 170.269C82.78 170.269 54.327 179.879 47.98 189.805C45.1 192.827 41.241 200 41.241 200H100Z" fill="#EAC8AD"/>
<path d="M100 200V193.17C100 193.17 113.012 189.945 115.881 179.405C116.704 176.429 117.154 173.361 117.219 170.274C117.219 170.274 145.672 179.884 152.019 189.81C154.497 193.048 156.749 196.452 158.759 200H100Z" fill="#EAC8AD"/>
<path d="M100.22 147.307C106.82 147.307 112.174 143.254 112.174 138.252H88.267C88.267 143.254 93.618 147.307 100.22 147.307Z" fill="white"/>
<path d="M97.756 34.041C66.811 34.041 57.403 61.152 57.403 73.641C46.18 89.241 58.414 103.196 67.076 108.099V100.42C67.076 90.332 76.668 80.991 91.076 82.546C103.987 83.94 112.117 76.646 118.986 64.238C127.464 47.625 116.881 34.041 97.756 34.041Z" fill="#482B1B"/>
<path d="M117.661 59.137C117.661 59.137 124.891 88.491 144.693 98.231C148.217 71.842 150.3 77.401 144.693 63.505C139.086 49.609 117.661 39.287 117.661 39.287V59.137V59.137Z" fill="#482B1B"/>
<path d="M152.024 189.809C146.724 181.53 126.062 173.474 119.349 171.029C119.159 176.034 117.037 180.77 113.429 184.243C109.821 187.716 105.007 189.657 99.999 189.657C94.9908 189.657 90.1774 187.716 86.5694 184.243C82.9614 180.77 80.8394 176.034 80.649 171.029C73.937 173.474 54.049 181.058 48.09 188.875C45.5731 192.434 43.2854 196.15 41.241 200H158.759C156.865 196.383 154.609 192.969 152.024 189.809V189.809Z" fill="#FAA21C"/>
<path d="M158.759 200C156.977 196.319 154.712 192.891 152.024 189.809C146.724 181.53 126.062 173.474 119.349 171.029C119.155 176.031 117.031 180.763 113.424 184.233C109.816 187.703 105.005 189.642 100 189.642V200H158.759V200Z" fill="#F68E1F"/>
<path d="M74.269 173.5C75.2281 179.635 78.348 185.226 83.066 189.264C87.784 193.302 93.7896 195.521 99.9995 195.521C106.209 195.521 112.215 193.302 116.933 189.264C121.651 185.226 124.771 179.635 125.73 173.5C123.115 172.431 120.871 171.586 119.348 171.031C119.158 176.036 117.036 180.772 113.428 184.245C109.82 187.718 105.006 189.659 99.998 189.659C94.9898 189.659 90.1764 187.718 86.5684 184.245C82.9604 180.772 80.8384 176.036 80.648 171.031C79.129 171.583 76.885 172.429 74.269 173.5Z" fill="#39B54A"/>
<path d="M100.22 44.949C109.852 44.949 117.661 37.1404 117.661 27.508C117.661 17.8756 109.852 10.067 100.22 10.067C90.5876 10.067 82.779 17.8756 82.779 27.508C82.779 37.1404 90.5876 44.949 100.22 44.949Z" fill="#482B1B"/>
</g>
<defs>
<clipPath id="clip0">
<rect width="200" height="200" fill="white"/>
</clipPath>
</defs>
</svg>
