<svg width="200" height="201" viewBox="0 0 200 201" fill="none" xmlns="http://www.w3.org/2000/svg">
<g clip-path="url(#clip0)">
<path d="M200 0H0V200H200V0Z" fill="#536DFE"/>
<path d="M100.208 200.135H60.086C60.086 200.135 41.568 182.235 50.827 155.69C60.086 129.145 68.111 118.656 68.727 90.263H100.208V200.135Z" fill="#870B16"/>
<path d="M99.172 200.135H139.294C139.294 200.135 157.812 182.235 148.553 155.69C139.294 129.145 131.27 118.656 130.653 90.263H99.172V200.135Z" fill="#870B16"/>
<path d="M100.208 127.323C127.317 127.323 149.293 105.347 149.293 78.238C149.293 51.1291 127.317 29.153 100.208 29.153C73.0991 29.153 51.123 51.1291 51.123 78.238C51.123 105.347 73.0991 127.323 100.208 127.323Z" fill="#870B16"/>
<path d="M116.63 183.351L100 200L83.786 183.351V147.338H116.63V183.351Z" fill="#EAC8AD"/>
<path d="M100.207 47.527C84.261 47.527 59.042 56.593 59.042 99.073C59.042 123.598 68.602 135.161 72.086 139.606C75.293 143.696 91.75 156.916 100.207 156.916V47.527Z" fill="#F2D7BC"/>
<path d="M51.109 109.2C50.409 102.412 53.641 96.39 58.331 95.745C63.021 95.1 67.398 100.083 68.102 106.87C68.806 113.657 65.57 119.678 60.879 120.322C56.188 120.966 51.813 115.986 51.109 109.2Z" fill="#F2D7BC"/>
<path d="M100.078 47.527C116.024 47.527 141.243 56.593 141.243 99.073C141.243 123.598 131.683 135.161 128.199 139.606C124.992 143.696 108.535 156.916 100.078 156.916V47.527V47.527Z" fill="#EAC0A7"/>
<path d="M149.306 109.2C150.006 102.412 146.775 96.39 142.084 95.745C137.393 95.1 133.018 100.083 132.314 106.87C131.61 113.657 134.845 119.678 139.538 120.322C144.231 120.966 148.6 115.986 149.306 109.2Z" fill="#EAC0A7"/>
<path d="M99.667 37.239C98.8648 37.1332 98.057 37.0754 97.248 37.066C97.248 37.066 70.313 39.082 62.817 74.166C59.217 76.866 52.623 87.359 61.317 99.052C62.517 89.158 66.14 81.991 72.41 79.262C83.536 74.422 88.117 78.919 101.01 69.026C108.54 63.247 111.247 51.626 109.582 45.135C108.843 43.0172 107.52 41.1517 105.765 39.7544C104.011 38.3571 101.896 37.485 99.667 37.239V37.239Z" fill="#870B16"/>
<path d="M107.878 46.985C107.878 46.985 98.17 83.2 140.559 98.37C150.716 65.214 132.162 43.587 107.878 46.985Z" fill="#870B16"/>
<path d="M59.6057 116.219L56.9629 118.862L59.6064 121.505L62.2492 118.862L59.6057 116.219Z" fill="#FFF200"/>
<path d="M141.371 116.219L138.728 118.862L141.372 121.505L144.015 118.862L141.371 116.219Z" fill="#FFF200"/>
<path d="M100 200V185.14C100 185.14 87.748 182.1 85.046 172.177C84.2706 169.374 83.847 166.485 83.785 163.577C83.785 163.577 56.994 172.625 51.013 181.972C46.037 196.79 44.672 200 44.672 200H100Z" fill="#F8A41D"/>
<path d="M100 200V185.14C100 185.14 112.252 182.104 114.954 172.178C115.729 169.375 116.153 166.486 116.214 163.578C116.214 163.578 143.006 172.626 148.986 181.973C153.963 196.79 155.328 200 155.328 200H100Z" fill="#F98E1C"/>
<path d="M100.208 141.955C106.424 141.955 111.464 138.138 111.464 133.43H88.952C88.952 138.138 93.992 141.955 100.208 141.955Z" fill="white"/>
</g>
<defs>
<clipPath id="clip0">
<rect width="200" height="200.135" fill="white"/>
</clipPath>
</defs>
</svg>
