<svg width="200" height="200" viewBox="0 0 200 200" fill="none" xmlns="http://www.w3.org/2000/svg">
<path d="M200 0H0V200H200V0Z" fill="#536DFE"/>
<path d="M148.258 118.774C148.258 145.427 126.652 131.601 100 131.601C73.348 131.601 51.742 145.428 51.742 118.774V75.151C51.7419 68.8136 52.99 62.5383 55.4152 56.6833C57.8403 50.8283 61.395 45.5084 65.8761 41.0272C70.3573 36.546 75.6773 32.9913 81.5323 30.5662C87.3873 28.141 93.6626 26.8929 100 26.893V26.893C112.799 26.893 125.073 31.9773 134.124 41.0274C143.174 50.0776 148.258 62.3522 148.258 75.151V118.775V118.774Z" fill="#461811"/>
<path d="M100.209 124.786C127.396 124.786 149.435 102.747 149.435 75.56C149.435 48.3732 127.396 26.334 100.209 26.334C73.0222 26.334 50.983 48.3732 50.983 75.56C50.983 102.747 73.0222 124.786 100.209 124.786Z" fill="#461811"/>
<path d="M116.679 180.977L100 200L83.739 180.977V144.859H116.679V180.977Z" fill="#EAC8AD"/>
<path d="M100.209 44.759C84.216 44.759 58.925 53.851 58.925 96.459C58.925 121.059 68.513 132.654 72.007 137.112C75.223 141.212 91.728 154.47 100.207 154.47V44.759H100.209Z" fill="#F2D7BC"/>
<path d="M50.969 106.612C50.263 99.805 53.507 93.764 58.211 93.119C62.915 92.474 67.304 97.469 68.011 104.276C68.718 111.083 65.472 117.121 60.766 117.767C56.06 118.413 51.673 113.417 50.969 106.612Z" fill="#F2D7BC"/>
<path d="M100.078 44.759C116.07 44.759 141.361 53.851 141.361 96.459C141.361 121.059 131.775 132.654 128.28 137.112C125.064 141.212 108.56 154.47 100.08 154.47V44.759H100.078Z" fill="#EAC0A7"/>
<path d="M149.449 106.612C150.149 99.805 146.909 93.764 142.206 93.119C137.503 92.474 133.114 97.469 132.406 104.276C131.698 111.083 134.944 117.121 139.649 117.767C144.354 118.413 148.742 113.417 149.449 106.612Z" fill="#EAC0A7"/>
<path d="M100 200V182.77C100 182.77 87.712 179.726 85 169.77C84.2228 166.959 83.7982 164.063 83.736 161.147C83.736 161.147 56.871 170.224 50.872 179.6C45.881 194.458 44.512 200 44.512 200H100Z" fill="#EAC8AD"/>
<path d="M100 200V182.77C100 182.77 112.288 179.726 115 169.77C115.777 166.959 116.201 164.063 116.264 161.147C116.264 161.147 143.132 170.222 149.13 179.595C154.121 194.453 155.49 199.995 155.49 199.995H100V200Z" fill="#EAC8AD"/>
<path d="M100.209 139.462C106.443 139.462 111.497 135.634 111.497 130.911H88.92C88.92 135.634 93.974 139.462 100.209 139.462Z" fill="white"/>
<path d="M97.881 32.5C68.658 32.5 59.774 58.1 59.774 69.892C49.174 84.622 60.729 97.801 68.909 102.431V95.185C68.909 85.659 77.966 76.838 91.571 78.306C103.763 79.622 111.441 72.733 117.927 61.017C125.935 45.329 115.941 32.5 97.881 32.5Z" fill="#461811"/>
<path d="M116.679 56.2C116.679 56.2 123.506 83.919 142.205 93.117C145.534 68.197 147.505 73.445 142.205 60.324C136.905 47.203 116.679 37.453 116.679 37.453V56.2V56.2Z" fill="#461811"/>
<path d="M100 200V189.921L83.739 161.149C83.739 161.149 56.871 170.224 50.872 179.6C45.881 194.458 44.512 200 44.512 200H100Z" fill="#71B6E7"/>
<path d="M100 200V189.921L116.261 161.149C116.261 161.149 143.129 170.224 149.127 179.597C154.118 194.455 155.487 199.997 155.487 199.997H100V200Z" fill="#5EACDD"/>
<path d="M100 189.921L83.739 161.149L68.801 165.926L81.517 194.454L100 189.921Z" fill="white"/>
<path d="M100 189.921L116.261 161.149L131.199 165.926L118.482 194.454L100 189.921Z" fill="white"/>
</svg>
