<svg width="200" height="200" viewBox="0 0 200 200" fill="none" xmlns="http://www.w3.org/2000/svg">
<path d="M200 0H0V200H200V0Z" fill="#536DFE"/>
<path d="M116.453 177.645L100.393 198.046L83.551 177.645V143.521H116.453V177.645Z" fill="#D9A78C"/>
<path d="M83.5507 165.021C83.5507 165.021 48.2746 169.593 43.6547 174.405C38.1468 180.144 32.7528 184.434 29.3333 200H99.9994V196.092L83.5507 165.021Z" fill="#F1F2F2"/>
<path d="M116.453 165.021C116.453 165.021 151.727 169.593 156.347 174.405C160.369 178.597 168.733 191.192 170.667 200H99.9994V196.092L116.453 165.021Z" fill="#E6E7E8"/>
<path d="M100.001 40.2857C115.976 40.2857 141.239 49.3678 141.239 91.9241C141.239 116.494 133.228 132.591 129.738 137.044C126.527 141.141 108.472 149.872 100.001 149.872V40.2857H100.001Z" fill="#EAC0A7"/>
<path d="M149.187 102.071C149.89 95.2711 146.651 89.238 141.952 88.5925C137.252 87.947 132.869 92.9373 132.165 99.7373C131.459 106.535 134.7 112.567 139.401 113.213C144.101 113.856 148.48 108.869 149.187 102.071Z" fill="#EAC0A7"/>
<path d="M100.001 40.2857C84.0257 40.2857 58.7622 49.3678 58.7622 91.9241C58.7622 116.494 66.7729 132.591 70.2632 137.044C73.4747 141.141 91.5292 149.872 100.001 149.872V40.2857Z" fill="#F2D7BC"/>
<path d="M50.8161 102.071C50.1113 95.2711 53.3513 89.238 58.0498 88.5925C62.7521 87.9471 67.1318 92.9373 67.8378 99.7373C68.5426 106.534 65.3014 112.567 60.6016 113.213C55.9019 113.856 51.52 108.868 50.8161 102.071Z" fill="#F2D7BC"/>
<path d="M64.2532 102.817H67.1007C67.1007 102.817 65.3685 91.7344 70.449 88.1562V80.9975C70.449 80.9975 68.4858 80.7675 68.4858 72.3414C68.4858 63.9124 78.5295 57.9102 100.001 57.9102V27.0835C100.001 27.0835 57.5566 27.9871 57.5566 58.7919V88.6185C58.4843 88.4768 59.4308 88.5194 60.342 88.744C61.2531 88.9686 62.1111 89.3707 62.8666 89.9273C65.2537 91.9281 64.2532 102.817 64.2532 102.817Z" fill="#2F343A"/>
<path d="M135.749 102.817H132.902C132.902 102.817 134.633 91.7344 129.555 88.1562V80.9975C129.555 80.9975 131.517 80.7675 131.517 72.3414C131.517 63.9124 121.473 57.9102 100.001 57.9102V27.0835C100.001 27.0835 142.445 26.1153 142.445 56.9189V88.6189C141.517 88.4772 140.571 88.5198 139.659 88.7444C138.748 88.969 137.89 89.3711 137.135 89.9277C134.749 91.9281 135.749 102.817 135.749 102.817Z" fill="#2F343A"/>
<path d="M100.001 196.092L88.82 168.17L84.692 185.39L100.001 196.092Z" fill="#A0B2BE"/>
<path d="M83.086 161.066L88.955 168.694L84.692 185.39L75.676 173.228L83.086 161.066Z" fill="white"/>
<path d="M100.002 196.092L110.127 167.721L115.312 185.39L100.002 196.092Z" fill="#A0B2BE"/>
<path d="M116.915 161.066L109.991 168.243L115.312 185.39L125.109 173.228L116.915 161.066Z" fill="white"/>
<path d="M99.9994 131.543C107.446 131.543 113.482 129.085 113.482 126.049H86.517C86.517 129.085 92.5528 131.543 99.9994 131.543Z" fill="white"/>
</svg>
