<svg width="1200" height="656" viewBox="0 0 1200 656" fill="none" xmlns="http://www.w3.org/2000/svg">
<path d="M1200 0H0V656H1200V0Z" fill="#536DFE"/>
<path d="M1200 441.26H0V656H1200V441.26Z" fill="#F1F1F1"/>
<path opacity="0.2" d="M176.649 602.766C213.797 602.766 243.912 598.262 243.912 592.705C243.912 587.149 213.797 582.644 176.649 582.644C139.501 582.644 109.386 587.149 109.386 592.705C109.386 598.262 139.501 602.766 176.649 602.766Z" fill="black"/>
<path d="M233.067 507.159C229.14 505.883 224.982 505.474 220.881 505.962C216.781 506.45 212.835 507.822 209.317 509.985C205.798 512.147 202.792 515.047 200.504 518.485C198.217 521.923 196.703 525.817 196.068 529.898C195.432 533.978 195.691 538.148 196.825 542.118C197.959 546.089 199.942 549.766 202.636 552.896C205.33 556.025 208.672 558.532 212.43 560.244C216.189 561.955 220.274 562.83 224.403 562.808C224.703 562.808 224.987 562.797 225.276 562.789C231.974 562.548 238.374 559.955 243.351 555.466C248.328 550.977 251.566 544.878 252.496 538.241C253.425 531.603 251.988 524.849 248.435 519.166C244.882 513.482 239.441 509.231 233.067 507.159V507.159ZM232.817 548.448C229.691 550.338 226.028 551.141 222.399 550.731C218.769 550.321 215.377 548.722 212.752 546.182C210.127 543.643 208.416 540.306 207.885 536.692C207.355 533.078 208.036 529.39 209.821 526.203C211.607 523.017 214.396 520.511 217.755 519.076C221.114 517.641 224.854 517.358 228.39 518.271C231.927 519.184 235.062 521.241 237.307 524.123C239.552 527.004 240.78 530.547 240.8 534.2C240.821 537.064 240.096 539.883 238.696 542.381C237.296 544.88 235.27 546.97 232.817 548.448V548.448Z" fill="white"/>
<path d="M224.339 550.839C227.329 550.826 230.26 550 232.817 548.449C231.391 554.336 229.025 559.474 225.276 562.79C224.987 562.799 224.699 562.807 224.403 562.809C220.274 562.83 216.19 561.954 212.433 560.243C208.675 558.531 205.334 556.024 202.641 552.895C199.947 549.766 197.965 546.089 196.831 542.119C195.698 538.148 195.44 533.979 196.075 529.9C196.71 525.82 198.223 521.927 200.51 518.489C202.797 515.051 205.803 512.151 209.321 509.989C212.838 507.827 216.783 506.454 220.883 505.966C224.983 505.477 229.14 505.885 233.067 507.16C233.513 510.249 234.16 515.35 234.509 521.304C232.435 519.665 229.998 518.546 227.402 518.043C224.807 517.539 222.129 517.664 219.591 518.408C217.054 519.152 214.733 520.493 212.82 522.318C210.908 524.144 209.461 526.401 208.6 528.901C207.739 531.401 207.49 534.07 207.873 536.686C208.256 539.302 209.26 541.789 210.801 543.937C212.342 546.085 214.376 547.833 216.731 549.034C219.086 550.234 221.695 550.854 224.339 550.839V550.839Z" fill="#E1E1E1"/>
<path d="M227.775 494.472L227.991 534.78C228.021 548.441 222.634 561.557 213.011 571.254C203.388 580.95 190.313 586.436 176.652 586.509C162.991 586.583 149.858 581.237 140.131 571.645C130.405 562.052 124.877 548.995 124.761 535.334L124.544 495.026L227.775 494.472Z" fill="white"/>
<path d="M211.991 592.862L141.384 593.241C139.482 593.246 137.655 592.497 136.303 591.159C134.951 589.822 134.183 588.003 134.167 586.101V586.101C134.163 584.199 134.911 582.373 136.249 581.021C137.587 579.669 139.405 578.901 141.307 578.885L211.914 578.506C213.816 578.501 215.643 579.25 216.995 580.588C218.347 581.925 219.115 583.744 219.131 585.646C219.135 587.548 218.387 589.374 217.049 590.726C215.711 592.078 213.893 592.846 211.991 592.862Z" fill="#E1E1E1"/>
<path d="M217.123 566.74C213.512 571.383 209.136 575.376 204.182 578.547L149.039 578.847C141.651 574.231 135.55 567.821 131.306 560.214C127.061 552.607 124.809 544.049 124.761 535.338L124.544 495.03L155.291 494.865L155.349 505.63C155.437 521.926 161.994 537.52 173.579 548.981C185.164 560.442 200.827 566.832 217.123 566.744V566.744V566.74Z" fill="#E1E1E1"/>
<path d="M157.46 481.03C157.46 481.03 145.609 472.46 149.066 455.671C152.523 438.882 166.349 436.413 162.398 410.242C158.447 384.071 156.472 360.369 167.83 346.542H204.864C204.864 346.542 191.902 381.725 200.79 405.427C209.678 429.129 201.843 438.881 193.971 452.214C186.099 465.547 197.95 481.029 197.95 481.029H157.46V481.03Z" fill="url(#paint0_linear)"/>
<path opacity="0.2" d="M1110.39 329.498H1006.01V412.767H1110.39V329.498Z" fill="black"/>
<path d="M1110.39 321.654H1006.01V404.923H1110.39V321.654Z" fill="white"/>
<path d="M1006.01 300.546V321.914H1110.39V300.546H1006.01ZM1020.26 315.962C1018.9 315.962 1017.59 315.42 1016.63 314.457C1015.66 313.494 1015.12 312.188 1015.12 310.825V310.819C1015.12 309.457 1015.66 308.15 1016.62 307.187C1017.59 306.224 1018.89 305.683 1020.25 305.683C1021.62 305.683 1022.92 306.224 1023.89 307.187C1024.85 308.15 1025.39 309.457 1025.39 310.819V310.825C1025.39 312.186 1024.85 313.492 1023.89 314.456C1022.93 315.419 1021.62 315.961 1020.26 315.962V315.962ZM1096.15 315.962C1094.78 315.962 1093.48 315.42 1092.51 314.457C1091.55 313.494 1091.01 312.187 1091.01 310.825V310.819C1091.01 309.457 1091.55 308.15 1092.51 307.187C1093.48 306.224 1094.78 305.683 1096.15 305.683C1097.51 305.683 1098.81 306.224 1099.78 307.187C1100.74 308.15 1101.28 309.457 1101.28 310.819V310.825C1101.28 311.5 1101.15 312.168 1100.89 312.791C1100.63 313.414 1100.26 313.981 1099.78 314.458C1099.3 314.935 1098.74 315.313 1098.11 315.571C1097.49 315.829 1096.82 315.962 1096.15 315.962V315.962Z" fill="#007CF8"/>
<path d="M1110.39 310.825V321.913H1006.01V310.825H1015.11C1015.11 312.187 1015.66 313.494 1016.62 314.457C1017.58 315.42 1018.89 315.961 1020.25 315.961C1021.61 315.961 1022.92 315.42 1023.88 314.457C1024.85 313.494 1025.39 312.187 1025.39 310.825H1091.01C1091.01 312.187 1091.55 313.494 1092.51 314.457C1093.47 315.42 1094.78 315.961 1096.14 315.961C1097.5 315.961 1098.81 315.42 1099.77 314.457C1100.74 313.494 1101.28 312.187 1101.28 310.825H1110.38H1110.39Z" fill="#007CF8"/>
<path d="M1017.96 288.974H1022.55C1022.81 288.974 1023.07 289.079 1023.26 289.267C1023.44 289.454 1023.55 289.709 1023.55 289.974V310.674C1023.55 310.714 1023.53 310.752 1023.5 310.781C1023.48 310.809 1023.44 310.825 1023.4 310.825H1017.11C1017.07 310.825 1017.04 310.809 1017.01 310.781C1016.98 310.752 1016.96 310.714 1016.96 310.674V289.974C1016.96 289.709 1017.07 289.454 1017.26 289.267C1017.44 289.079 1017.7 288.974 1017.96 288.974Z" fill="white"/>
<path d="M1093.85 288.974H1098.44C1098.7 288.974 1098.96 289.079 1099.15 289.267C1099.33 289.454 1099.44 289.709 1099.44 289.974V310.674C1099.44 310.714 1099.42 310.752 1099.39 310.781C1099.37 310.809 1099.33 310.825 1099.29 310.825H1093C1092.98 310.825 1092.96 310.821 1092.94 310.814C1092.92 310.806 1092.91 310.795 1092.89 310.781C1092.88 310.767 1092.87 310.75 1092.86 310.732C1092.85 310.713 1092.85 310.694 1092.85 310.674V289.974C1092.85 289.842 1092.88 289.712 1092.93 289.59C1092.98 289.469 1093.05 289.358 1093.14 289.265C1093.24 289.173 1093.35 289.099 1093.47 289.049C1093.59 288.999 1093.72 288.973 1093.85 288.974V288.974Z" fill="white"/>
<path d="M1035.48 342.519C1041.55 342.519 1042.9 339.592 1044.12 336.237H1049.4V386.209H1041.55V348.087H1035.48V342.519V342.519Z" fill="#003948"/>
<path d="M1070.39 342.8C1067.89 342.8 1066.32 344.156 1066.32 347.726V353.08H1058.89V348.23C1058.89 340.23 1062.89 335.665 1070.6 335.665C1078.31 335.665 1082.31 340.234 1082.31 348.23C1082.31 363.935 1066.67 369.789 1066.67 377.999C1066.66 378.357 1066.69 378.716 1066.74 379.07H1081.59V386.209H1058.89V380.07C1058.89 365.364 1074.46 362.937 1074.46 348.517C1074.46 344.018 1072.88 342.8 1070.39 342.8Z" fill="#003948"/>
<g opacity="0.2">
<path opacity="0.2" d="M141.401 199.344C180.644 199.344 212.456 167.532 212.456 128.289C212.456 89.0464 180.644 57.234 141.401 57.234C102.158 57.234 70.346 89.0464 70.346 128.289C70.346 167.532 102.158 199.344 141.401 199.344Z" fill="black"/>
</g>
<path d="M141.401 192.098C180.644 192.098 212.456 160.286 212.456 121.043C212.456 81.8004 180.644 49.988 141.401 49.988C102.158 49.988 70.346 81.8004 70.346 121.043C70.346 160.286 102.158 192.098 141.401 192.098Z" fill="#008BEF"/>
<path d="M141.4 186.5C128.454 186.5 115.799 182.661 105.035 175.469C94.2711 168.277 85.8816 158.054 80.9274 146.094C75.9733 134.133 74.6771 120.972 77.2027 108.275C79.7283 95.5783 85.9623 83.9154 95.1163 74.7613C104.27 65.6073 115.933 59.3733 128.63 56.8477C141.327 54.3221 154.488 55.6183 166.449 60.5725C178.409 65.5266 188.632 73.9161 195.824 84.6801C203.016 95.4442 206.855 108.099 206.855 121.045C206.835 138.399 199.933 155.036 187.662 167.307C175.391 179.578 158.754 186.48 141.4 186.5V186.5Z" fill="white"/>
<path d="M141.575 61.539H139.125V75.19H141.575V61.539Z" fill="#182632"/>
<path d="M141.575 166.547H139.125V180.198H141.575V166.547Z" fill="#182632"/>
<path d="M94.672 119.643H81.021V122.093H94.672V119.643Z" fill="#182632"/>
<path d="M199.68 119.643H186.029V122.093H199.68V119.643Z" fill="#182632"/>
<path d="M181.437 78.0491L171.784 87.7018L173.516 89.4343L183.169 79.7815L181.437 78.0491Z" fill="#182632"/>
<path d="M107.185 152.301L97.5318 161.954L99.2642 163.686L108.917 154.034L107.185 152.301Z" fill="#182632"/>
<path d="M99.2648 78.0492L97.5324 79.7816L107.185 89.4343L108.918 87.7019L99.2648 78.0492Z" fill="#182632"/>
<path d="M173.516 152.299L171.783 154.032L181.435 163.685L183.168 161.953L173.516 152.299Z" fill="#182632"/>
<g opacity="0.2">
<path opacity="0.2" d="M206.855 121.043C206.855 122.296 206.82 123.542 206.75 124.781C205.799 108.093 198.5 92.4004 186.349 80.922C174.197 69.4435 158.115 63.0486 141.4 63.0486C124.685 63.0486 108.603 69.4435 96.4514 80.922C84.3003 92.4004 77.0009 108.093 76.05 124.781C75.98 123.542 75.945 122.296 75.945 121.043C75.945 103.683 82.8411 87.0345 95.1163 74.7593C107.392 62.4841 124.04 55.588 141.4 55.588C158.76 55.588 175.408 62.4841 187.684 74.7593C199.959 87.0345 206.855 103.683 206.855 121.043V121.043Z" fill="black"/>
</g>
<path d="M139.894 119.249L139.125 121.203L162.269 130.316L163.039 128.362L139.894 119.249Z" fill="#DC3645"/>
<path d="M141.401 121.918H103.224V119.818H139.3V90.185H141.401V121.918Z" fill="#182632"/>
<path opacity="0.8" d="M601.111 640.729C769.772 640.729 906.498 504.003 906.498 335.342C906.498 166.681 769.772 29.955 601.111 29.955C432.45 29.955 295.724 166.681 295.724 335.342C295.724 504.003 432.45 640.729 601.111 640.729Z" fill="url(#paint1_linear)"/>
<path opacity="0.2" d="M614.205 531.964C763.721 531.964 884.928 523.168 884.928 512.318C884.928 501.468 763.721 492.672 614.205 492.672C464.689 492.672 343.482 501.468 343.482 512.318C343.482 523.168 464.689 531.964 614.205 531.964Z" fill="black"/>
<path d="M387.556 104.522H824.818C828.537 104.522 832.104 105.999 834.734 108.629C837.364 111.259 838.841 114.826 838.841 118.545V380.087H372.533V119.545C372.533 115.561 374.116 111.739 376.933 108.922C379.75 106.105 383.572 104.522 387.556 104.522V104.522Z" fill="#182632"/>
<path d="M797.04 421.888H414.334C403.248 421.888 392.616 417.484 384.777 409.645C376.938 401.806 372.534 391.174 372.534 380.088H838.842C838.842 385.577 837.761 391.013 835.66 396.085C833.559 401.156 830.48 405.764 826.598 409.646C822.717 413.527 818.108 416.606 813.037 418.707C807.965 420.807 802.529 421.888 797.04 421.888V421.888Z" fill="white"/>
<path d="M647.691 421.888H563.074V492.301H647.691V421.888Z" fill="#E1E1E1"/>
<path d="M647.691 421.888H563.074V444.209H647.691V421.888Z" fill="#BBBBBB"/>
<path d="M519.573 492.3H691.193C694.376 492.3 697.428 493.564 699.678 495.815C701.929 498.065 703.193 501.117 703.193 504.3V519.085H507.573V504.3C507.573 501.117 508.837 498.065 511.088 495.815C513.338 493.564 516.39 492.3 519.573 492.3V492.3Z" fill="white"/>
<path d="M399.388 124.611C397.453 124.618 395.6 125.39 394.232 126.758C392.864 128.127 392.094 129.981 392.088 131.916V137.164L642.308 353.5H685.15L420.4 124.611H399.388Z" fill="#384444"/>
<path d="M392.083 217.1V346.2C392.089 348.135 392.86 349.989 394.227 351.357C395.595 352.726 397.448 353.498 399.383 353.505H606.017L392.083 168.541V217.1Z" fill="#384444"/>
<path d="M811.378 124.611H524.627L789.372 353.5H811.378C813.314 353.494 815.168 352.723 816.537 351.354C817.906 349.985 818.677 348.131 818.683 346.195V131.916C818.677 129.98 817.906 128.126 816.537 126.757C815.168 125.388 813.314 124.617 811.378 124.611V124.611Z" fill="#384444"/>
<path opacity="0.57" d="M505.447 124.611H420.404L685.15 353.504H710.226H789.372L524.627 124.611H505.447Z" fill="#436867"/>
<path opacity="0.57" d="M392.083 168.541L606.017 353.504H642.308L392.083 137.164V168.541Z" fill="#436867"/>
<path d="M603.735 412.772C611.018 412.772 616.922 406.868 616.922 399.585C616.922 392.302 611.018 386.398 603.735 386.398C596.452 386.398 590.548 392.302 590.548 399.585C590.548 406.868 596.452 412.772 603.735 412.772Z" fill="#BBBBBB"/>
<path opacity="0.2" d="M760.854 367.612L714.715 368.28L715.422 417.172L761.561 416.504L760.854 367.612Z" fill="black"/>
<path d="M758.354 366.544L712.214 367.211L712.882 413.345L759.021 412.678L758.354 366.544Z" fill="#F1BC03"/>
<path opacity="0.5" d="M738.979 355.626L731.266 355.738L731.493 371.447L739.206 371.336L738.979 355.626Z" fill="white"/>
<path opacity="0.2" d="M833.596 635H375.881L436.32 539.059H773.157L833.596 635Z" fill="black"/>
<path d="M818.23 605.404H390.232L431.912 539.059H776.55L818.23 605.404Z" fill="#E1E1E1"/>
<path d="M818.23 605.404H390.232V620.429H818.23V605.404Z" fill="#BBBBBB"/>
<path d="M454.779 550.771H433.15L436.32 543.971H457.261L454.779 550.771Z" fill="white"/>
<path d="M457.579 550.771L460.314 543.971H481.256L479.208 550.771H457.579Z" fill="white"/>
<path d="M482.008 550.771L484.308 543.971H505.25L503.637 550.771H482.008Z" fill="white"/>
<path d="M506.516 550.771L508.382 543.971H529.324L528.145 550.771H506.516Z" fill="white"/>
<path d="M530.972 550.771L532.403 543.971H553.344L552.601 550.771H530.972Z" fill="white"/>
<path d="M555.428 550.771L556.423 543.971H577.365L577.056 550.771H555.428Z" fill="white"/>
<path d="M579.82 550.771L580.381 543.971H601.322L601.449 550.771H579.82Z" fill="white"/>
<path d="M604.058 550.771L604.184 543.971H625.126L625.687 550.771H604.058Z" fill="white"/>
<path d="M628.451 550.771L628.142 543.971H649.083L650.079 550.771H628.451Z" fill="white"/>
<path d="M652.906 550.771L652.163 543.971H673.104L674.535 550.771H652.906Z" fill="white"/>
<path d="M677.362 550.771L676.183 543.971H697.125L698.99 550.771H677.362Z" fill="white"/>
<path d="M701.87 550.771L700.257 543.971H721.199L723.499 550.771H701.87Z" fill="white"/>
<path d="M726.299 550.771L724.251 543.971H745.193L747.928 550.771H726.299Z" fill="white"/>
<path d="M750.728 550.771H772.357L769.187 543.971H748.246L750.728 550.771Z" fill="white"/>
<path d="M450.289 563.482H427.865L431.151 556.431H452.863L450.289 563.482Z" fill="white"/>
<path d="M453.192 563.482L456.028 556.431H477.739L475.616 563.482H453.192Z" fill="white"/>
<path d="M478.52 563.482L480.904 556.431H502.616L500.943 563.482H478.52Z" fill="white"/>
<path d="M503.929 563.482L505.863 556.431H527.574L526.353 563.482H503.929Z" fill="white"/>
<path d="M529.284 563.482L530.767 556.431H552.478L551.707 563.482H529.284Z" fill="white"/>
<path d="M554.638 563.482L555.671 556.431H577.382L577.062 563.482H554.638Z" fill="white"/>
<path d="M579.927 563.482L580.509 556.431H602.22L602.351 563.482H579.927Z" fill="white"/>
<path d="M605.057 563.482L605.187 556.431H626.899L627.48 563.482H605.057Z" fill="white"/>
<path d="M630.346 563.482L630.025 556.431H651.737L652.77 563.482H630.346Z" fill="white"/>
<path d="M655.7 563.482L654.93 556.431H676.641L678.124 563.482H655.7Z" fill="white"/>
<path d="M681.055 563.482L679.833 556.431H701.545L703.479 563.482H681.055Z" fill="white"/>
<path d="M706.464 563.482L704.792 556.431H726.503L728.888 563.482H706.464Z" fill="white"/>
<path d="M731.791 563.482L729.668 556.431H751.38L754.215 563.482H731.791Z" fill="white"/>
<path d="M757.119 563.482H779.542L776.256 556.431H754.544L757.119 563.482Z" fill="white"/>
<path d="M446.263 575.968H423.167L426.551 568.706H448.914L446.263 575.968Z" fill="white"/>
<path d="M449.253 575.968L452.173 568.706H474.536L472.349 575.968H449.253Z" fill="white"/>
<path d="M475.339 575.968L477.796 568.706H500.158L498.435 575.968H475.339Z" fill="white"/>
<path d="M501.51 575.968L503.502 568.706H525.864L524.606 575.968H501.51Z" fill="white"/>
<path d="M527.625 575.968L529.152 568.706H551.515L550.721 575.968H527.625Z" fill="white"/>
<path d="M553.739 575.968L554.802 568.706H577.165L576.835 575.968H553.739Z" fill="white"/>
<path d="M579.786 575.968L580.385 568.706H602.748L602.882 575.968H579.786Z" fill="white"/>
<path d="M605.669 575.968L605.804 568.706H628.166L628.765 575.968H605.669Z" fill="white"/>
<path d="M631.716 575.968L631.387 568.706H653.749L654.812 575.968H631.716Z" fill="white"/>
<path d="M657.831 575.968L657.037 568.706H679.399L680.927 575.968H657.831Z" fill="white"/>
<path d="M683.945 575.968L682.687 568.706H705.049L707.041 575.968H683.945Z" fill="white"/>
<path d="M710.116 575.968L708.394 568.706H730.756L733.212 575.968H710.116Z" fill="white"/>
<path d="M736.203 575.968L734.015 568.706H756.378L759.299 575.968H736.203Z" fill="white"/>
<path d="M762.289 575.968H785.385L782 568.706H759.638L762.289 575.968Z" fill="white"/>
<path d="M440.659 588.706H416.76L420.262 581.192H443.402L440.659 588.706Z" fill="white"/>
<path d="M443.753 588.706L446.775 581.192H469.916L467.652 588.706H443.753Z" fill="white"/>
<path d="M470.747 588.706L473.289 581.192H496.429L494.646 588.706H470.747Z" fill="white"/>
<path d="M497.829 588.706L499.89 581.192H523.03L521.728 588.706H497.829Z" fill="white"/>
<path d="M524.851 588.706L526.432 581.192H549.572L548.751 588.706H524.851Z" fill="white"/>
<path d="M655.363 581.192H632.223H628.89H605.75H602.588H579.448H552.975L551.874 588.706H578.828H602.727H605.611H629.51H632.564H656.463L655.363 581.192Z" fill="white"/>
<path d="M659.587 588.706L658.765 581.192H681.906L683.486 588.706H659.587Z" fill="white"/>
<path d="M686.61 588.706L685.308 581.192H708.448L710.509 588.706H686.61Z" fill="white"/>
<path d="M713.691 588.706L711.909 581.192H735.049L737.591 588.706H713.691Z" fill="white"/>
<path d="M740.685 588.706L738.422 581.192H761.562L764.585 588.706H740.685Z" fill="white"/>
<path d="M767.679 588.706H791.578L788.076 581.192H764.936L767.679 588.706Z" fill="white"/>
<path opacity="0.2" d="M935.618 610.237C943.404 596.751 932.41 575.827 911.061 563.502C889.713 551.177 866.095 552.117 858.309 565.603C850.523 579.089 861.517 600.013 882.865 612.339C904.214 624.664 927.831 623.723 935.618 610.237Z" fill="black"/>
<path d="M935.164 598.008H935.151C935.029 598.64 934.797 599.245 934.465 599.797C934.465 599.8 934.464 599.804 934.461 599.806C934.459 599.809 934.455 599.81 934.452 599.81C926.368 612.897 883.235 605.419 878.433 593.852C878.016 592.843 877.599 591.915 877.209 591.052C871.224 578.194 867.418 581.772 856.909 573.052C856.469 572.697 856.06 572.305 855.685 571.882C855.645 571.829 855.591 571.788 855.55 571.734C849.632 564.996 856.909 556.401 856.909 556.401C857.353 556.052 857.797 555.715 858.24 555.392V555.379C861.517 552.978 865.198 551.182 869.108 550.079C870.789 549.601 872.508 549.267 874.246 549.079C905.009 545.6 937.988 584.707 935.164 598.008Z" fill="white"/>
<path d="M934.451 599.811C926.367 612.898 883.234 605.42 878.432 593.853C878.015 592.844 877.598 591.916 877.208 591.053C871.182 578.253 867.094 582.136 856.908 573.053C856.465 572.663 856.061 572.273 855.684 571.883C855.644 571.83 855.59 571.789 855.549 571.735C849.631 564.997 856.908 556.402 856.908 556.402C857.352 556.053 857.796 555.716 858.239 555.393C857.379 557.881 856.558 563.503 863.377 568.964C865.006 570.219 866.792 571.254 868.69 572.044C870.183 572.689 873.182 574.962 878.535 582.427C887.102 594.357 885.935 595.877 904.935 601.082C923.516 606.186 933.993 600.08 934.451 599.811Z" fill="#E1E1E1"/>
<path d="M887.955 559.556C876.955 550.428 869.112 550.088 869.112 550.088C870.793 549.61 872.512 549.276 874.25 549.088C879.818 551.027 884.62 554.695 887.955 559.556V559.556Z" fill="#E1E1E1"/>
<path d="M327.315 162.494C308.865 164.379 307.338 165.906 305.453 184.356C303.568 165.906 302.041 164.378 283.591 162.494C302.041 160.61 303.568 159.082 305.453 140.632C307.337 159.082 308.865 160.61 327.315 162.494Z" fill="white"/>
<path d="M906.79 412.548C888.34 414.433 886.813 415.96 884.928 434.41C883.043 415.96 881.516 414.432 863.066 412.548C881.516 410.664 883.044 409.136 884.928 390.686C886.813 409.136 888.34 410.663 906.79 412.548Z" fill="white"/>
<path d="M892.654 191.218C872.903 190.976 860.402 188.563 820.388 197.606C820.301 197.624 820.215 197.643 820.125 197.669C820.204 197.617 820.277 197.569 820.35 197.517C854.525 174.825 861.414 164.117 874.88 149.667C888.407 135.153 911.866 133.846 911.866 133.846L922.3 153.907L922.338 153.997L929.638 175.397C929.638 175.397 912.493 191.46 892.654 191.218Z" fill="#F68E37"/>
<path d="M853.7 183.3C861.303 176.729 868.415 169.61 874.978 162C876.946 159.8 878.978 157.529 881.141 155.212C888.241 147.592 905.741 142.001 912.45 140.738L918.475 154.823L924.669 169.304C919.131 173.286 903.422 182.995 892.969 182.868C889.802 182.829 886.753 182.731 883.805 182.637C873.767 182.122 863.705 182.343 853.7 183.3V183.3Z" fill="#F1BC03"/>
<path d="M872.786 175.142C876.259 171.889 879.401 168.783 882.499 165.722L882.536 165.685C884.912 163.338 887.368 160.911 889.936 158.461C894.767 153.852 906.243 149.053 914.823 146.282L922.359 163.9C913.891 168.827 902.936 173.971 896.694 174.261C893.144 174.426 889.685 174.526 886.341 174.623H886.3C881.948 174.75 877.535 174.877 872.786 175.142Z" fill="#FAF8A8"/>
<path d="M949.729 96.881C945.792 94.9094 941.516 93.7046 937.129 93.331C914.429 90.937 884.789 103.845 884.789 103.845C884.788 103.841 884.788 103.838 884.789 103.834C884.707 103.234 881.535 78.262 906.638 58.127C919.812 47.566 935.715 44.7 947.983 44.39C948.935 44.3405 949.879 44.5875 950.685 45.0971C951.491 45.6066 952.119 46.3536 952.483 47.235C953.003 48.4402 953.028 49.8015 952.553 51.025C952.316 51.6014 951.967 52.1246 951.525 52.5636C951.083 53.0026 950.557 53.3485 949.979 53.581L983.521 57.151L1008.64 59.823H1008.65C987.348 80.681 949.729 96.881 949.729 96.881Z" fill="#FFD04D"/>
<path d="M884.791 103.835C884.709 103.235 881.537 78.263 906.64 58.128C919.812 47.566 935.715 44.7 947.983 44.39C948.935 44.3405 949.879 44.5875 950.685 45.0971C951.491 45.6066 952.119 46.3536 952.483 47.235C953.003 48.4402 953.028 49.8015 952.553 51.025C951.753 51.853 950.895 52.705 949.979 53.581C949.979 53.581 923.386 55.861 904.607 72.989C886.119 89.848 884.828 103.416 884.791 103.835Z" fill="#FFD469"/>
<path d="M949.729 96.881C945.792 94.9094 941.516 93.7047 937.129 93.331C949.788 77.331 968.043 65.301 983.515 57.15L1008.63 59.822H1008.64C987.348 80.681 949.729 96.881 949.729 96.881Z" fill="#FCC53A"/>
<path d="M982.522 173.546C981.229 177.754 979.147 181.678 976.388 185.108C962.44 203.179 932.636 215.7 932.636 215.7L932.643 215.708C933.022 216.184 948.889 235.722 980.788 231.475C997.524 229.244 1010.58 219.723 1019.28 211.064C1019.97 210.41 1020.44 209.557 1020.63 208.622C1020.82 207.688 1020.71 206.719 1020.33 205.848C1019.81 204.64 1018.85 203.681 1017.63 203.18C1017.05 202.954 1016.43 202.846 1015.81 202.863C1015.19 202.88 1014.57 203.022 1014.01 203.28L1034.59 176.558L1050 156.543L1050.01 156.536C1020.22 157.528 982.522 173.546 982.522 173.546Z" fill="#FFD04D"/>
<path d="M932.643 215.7C933.022 216.176 948.889 235.714 980.788 231.467C997.524 229.236 1010.58 219.715 1019.28 211.056C1019.97 210.402 1020.44 209.549 1020.63 208.614C1020.82 207.68 1020.71 206.711 1020.33 205.84C1019.81 204.632 1018.85 203.673 1017.63 203.172C1016.48 203.18 1015.27 203.213 1014.01 203.272C1014.01 203.272 993.991 220.928 968.634 222.68C943.676 224.4 932.971 215.967 932.643 215.7Z" fill="#FFD469"/>
<path d="M982.522 173.546C981.229 177.754 979.147 181.678 976.388 185.108C996.701 187.002 1018.01 182.108 1034.59 176.552L1050 156.543L1050.01 156.536C1020.22 157.528 982.522 173.546 982.522 173.546Z" fill="#FCC53A"/>
<path d="M1046.94 157.586C1038.75 161.227 1030.39 164.426 1021.86 167.169C1013.5 169.694 1004.92 171.474 996.246 172.49C995.928 172.532 995.61 172.564 995.293 172.581L979.214 173.531L961.45 174.579L927.65 176.579L909.543 134.247L912.359 131.629L934.331 111.185L947.357 99.062C963.947 83.5553 983.053 70.9815 1003.86 61.878C1004.45 61.62 1005.06 61.358 1005.66 61.1C1034.47 48.777 1060.28 43.85 1081.97 42.793C1083.52 42.7177 1085.04 42.6613 1086.54 42.624C1090.15 42.536 1093.63 42.5477 1096.99 42.659C1098.44 42.7037 1099.86 42.7647 1101.25 42.842C1101.96 42.88 1102.67 42.922 1103.37 42.969C1111.32 43.4858 1119.22 44.5652 1127.01 46.199C1133.35 47.5142 1139.59 49.2698 1145.68 51.453C1146.81 51.817 1147.86 52.4198 1148.73 53.2208C1149.61 54.0217 1150.31 55.0021 1150.78 56.0957C1151.25 57.1892 1151.47 58.3704 1151.45 59.5595C1151.42 60.7486 1151.13 61.9177 1150.62 62.988C1144.65 76.1561 1136.88 88.4275 1127.53 99.447C1127.03 100.038 1126.53 100.631 1126.02 101.226C1125.11 102.285 1124.18 103.349 1123.22 104.42C1120.98 106.911 1118.58 109.43 1116.03 111.975C1115 113.006 1113.94 114.039 1112.85 115.075C1097.11 130.017 1075.73 145.27 1046.94 157.586Z" fill="white"/>
<path d="M945.324 175.53L927.652 176.576C926.374 174.967 925.158 173.338 924.003 171.691C923.026 170.296 922.094 168.886 921.208 167.459C918.089 162.493 915.512 157.207 913.52 151.692C911.495 146.058 910.161 140.199 909.545 134.244L922.506 122.186C923.618 129.635 925.451 136.958 927.979 144.052C930.947 152.339 934.879 160.248 939.693 167.617C940.5 168.857 941.333 170.086 942.193 171.303C943.198 172.727 944.241 174.136 945.324 175.53Z" fill="#3C3C71"/>
<path d="M913.52 151.692C911.495 146.058 910.161 140.199 909.545 134.244L922.506 122.186L934.332 111.186L947.358 99.063C963.948 83.5563 983.054 70.9825 1003.86 61.879C1004.45 61.621 1005.06 61.359 1005.66 61.101C1044.64 44.425 1078.14 41.291 1103.37 42.971C1111.32 43.4878 1119.22 44.5672 1127.02 46.201C1125.71 52.236 1127.83 53.855 1117 60.331C1117 60.331 1046.68 51.537 997.196 83.149C951.865 112.108 969.303 122.227 969.303 122.227L927.974 144.057L913.52 151.692Z" fill="#E1E1E1"/>
<path d="M898.853 166.609C898.306 166.628 897.766 166.481 897.303 166.188C896.841 165.894 896.478 165.468 896.263 164.964C896.048 164.461 895.99 163.904 896.096 163.367C896.203 162.83 896.47 162.338 896.862 161.955C929.82 129.769 999.047 112.079 1027.54 105.916C1028.16 105.781 1028.8 105.864 1029.36 106.153C1029.92 106.441 1030.37 106.916 1030.61 107.495C1030.86 108.075 1030.9 108.722 1030.72 109.327C1030.54 109.931 1030.16 110.454 1029.64 110.806C1005.5 127.158 944.892 165 898.853 166.609Z" fill="#FFD04D"/>
<path d="M1030.61 107.5L896.263 164.968C896.043 164.465 895.983 163.907 896.09 163.369C896.198 162.831 896.467 162.339 896.863 161.959C929.821 129.773 999.048 112.083 1027.55 105.92C1028.16 105.772 1028.81 105.85 1029.37 106.14C1029.94 106.43 1030.38 106.913 1030.61 107.5V107.5Z" fill="#EABA42"/>
<path d="M1076.12 116.059C1089.2 110.461 1095.27 95.3154 1089.68 82.2294C1084.08 69.1434 1068.93 63.0728 1055.85 68.6704C1042.76 74.268 1036.69 89.414 1042.29 102.5C1047.89 115.586 1063.03 121.657 1076.12 116.059Z" fill="#3C3C71"/>
<path d="M1074 111.106C1073.92 111.141 1073.83 111.177 1073.75 111.206C1068.84 113.226 1063.33 113.251 1058.4 111.275C1053.47 109.299 1049.51 105.479 1047.35 100.626C1047.31 100.546 1047.28 100.461 1047.24 100.38C1045.65 96.6718 1045.2 92.576 1045.94 88.6107C1046.68 84.6454 1048.58 80.9888 1051.4 78.1035C1054.22 75.2181 1057.83 73.2336 1061.78 72.401C1065.73 71.5684 1069.83 71.9251 1073.58 73.4259C1077.32 74.9268 1080.53 77.5044 1082.81 80.8327C1085.09 84.161 1086.33 88.0905 1086.38 92.1241C1086.42 96.1576 1085.27 100.114 1083.07 103.493C1080.87 106.872 1077.71 109.521 1074 111.106V111.106Z" fill="#33C8CB"/>
<path opacity="0.1" d="M1078.79 108.23C1082.61 105.137 1085.19 100.765 1086.05 95.9196C1086.9 91.0743 1085.97 86.0832 1083.44 81.8673C1080.9 77.6514 1076.93 74.4953 1072.24 72.9813C1067.56 71.4673 1062.49 71.6977 1057.97 73.63C1057.45 73.8513 1056.95 74.0907 1056.47 74.348C1061 72.8512 1065.91 72.9903 1070.35 74.7411C1074.78 76.4919 1078.47 79.7436 1080.76 83.9302C1083.04 88.1168 1083.79 92.9731 1082.87 97.6539C1081.95 102.335 1079.41 106.544 1075.7 109.548C1074.68 110.371 1073.59 111.092 1072.43 111.7C1072.87 111.556 1073.31 111.387 1073.75 111.208C1073.83 111.177 1073.92 111.14 1074 111.108C1075.72 110.373 1077.33 109.405 1078.79 108.23V108.23Z" fill="black"/>
<path d="M1080.83 93.013C1080.83 93.013 1076.46 103.801 1066.77 105.243C1056.16 106.821 1051.1 99.41 1049.86 89.758C1049.86 89.758 1046.6 98.658 1055.22 106.432C1064.23 114.547 1079.26 107.832 1080.83 93.013Z" fill="#00EEED"/>
<path d="M1127.53 99.444C1116.27 82.1604 1108.09 63.0499 1103.37 42.966C1117.8 43.8112 1132.05 46.6668 1145.69 51.45C1147.05 51.8992 1148.28 52.6909 1149.25 53.7495C1150.22 54.808 1150.91 56.0979 1151.24 57.496C1151.62 59.3442 1151.41 61.2684 1150.62 62.985C1144.66 76.1531 1136.89 88.4245 1127.53 99.444V99.444Z" fill="#FFD04D"/>
<path opacity="0.11" d="M1127.53 99.444C1116.27 82.1604 1108.09 63.0499 1103.37 42.966C1117.8 43.8112 1132.05 46.6668 1145.69 51.45C1147.05 51.8992 1148.28 52.6909 1149.25 53.7495C1150.22 54.808 1150.91 56.0979 1151.24 57.496C1149.61 56.728 1137.82 51.467 1128.21 55.577C1117.87 60 1114.54 77.2 1127.53 99.444Z" fill="black"/>
<defs>
<linearGradient id="paint0_linear" x1="176.648" y1="546.724" x2="176.648" y2="367.08" gradientUnits="userSpaceOnUse">
<stop stop-color="white"/>
<stop offset="0.216" stop-color="white" stop-opacity="0.763"/>
<stop offset="0.604" stop-color="white" stop-opacity="0.356"/>
<stop offset="0.874" stop-color="white" stop-opacity="0.1"/>
<stop offset="1" stop-color="white" stop-opacity="0"/>
</linearGradient>
<linearGradient id="paint1_linear" x1="367439" y1="-607231" x2="367439" y2="445604" gradientUnits="userSpaceOnUse">
<stop stop-color="white"/>
<stop offset="0.216" stop-color="white" stop-opacity="0.763"/>
<stop offset="0.604" stop-color="white" stop-opacity="0.356"/>
<stop offset="0.874" stop-color="white" stop-opacity="0.1"/>
<stop offset="1" stop-color="white" stop-opacity="0"/>
</linearGradient>
</defs>
</svg>
